<svg version="1.1" xmlns="http://www.w3.org/2000/svg" viewBox="0 0 474 382" width="1422" height="1146">
  <!-- svg-source:excalidraw -->
  
  <defs>
    <style class="style-fonts">
      @font-face {
        font-family: "Virgil";
        src: url("https://excalidraw.com/Virgil.woff2");
      }
      @font-face {
        font-family: "Cascadia";
        src: url("https://excalidraw.com/Cascadia.woff2");
      }
      @font-face {
        font-family: "Assistant";
        src: url("https://excalidraw.com/Assistant-Regular.woff2");
      }
    </style>
    
  </defs>
  <g transform="translate(277 160) rotate(0 -65 31)" stroke="none"><path fill="#1e1e1e" d="M -2.05,-1.71 Q -2.05,-1.71 -1.40,-4.07 -0.75,-6.42 0.04,-8.45 0.84,-10.47 1.42,-12.85 1.99,-15.24 1.86,-17.49 1.72,-19.74 0.96,-22.25 0.20,-24.76 -1.17,-26.46 -2.55,-28.16 -4.98,-29.79 -7.40,-31.42 -11.56,-32.25 -15.73,-33.09 -22.31,-32.68 -28.89,-32.27 -36.80,-29.67 -44.72,-27.07 -53.89,-21.78 -63.07,-16.50 -70.51,-10.13 -77.95,-3.77 -83.79,3.58 -89.63,10.93 -93.69,19.19 -97.74,27.45 -99.39,34.33 -101.04,41.21 -100.60,47.90 -100.16,54.60 -97.60,60.97 -95.04,67.35 -91.20,71.93 -87.36,76.51 -81.02,79.22 -74.69,81.94 -67.25,81.63 -59.81,81.33 -51.20,77.41 -42.58,73.48 -34.38,67.99 -26.18,62.50 -17.79,53.84 -9.40,45.18 -1.30,34.18 6.79,23.17 12.71,12.11 18.63,1.06 23.05,-12.24 27.47,-25.54 29.91,-39.58 32.34,-53.62 32.55,-65.89 32.75,-78.16 29.56,-89.33 26.36,-100.51 19.37,-109.89 12.38,-119.28 3.62,-125.34 -5.12,-131.39 -20.03,-135.03 -34.94,-138.67 -49.70,-139.15 -64.46,-139.63 -82.08,-135.64 -99.70,-131.64 -119.30,-122.62 -138.91,-113.59 -156.84,-101.53 -174.77,-89.47 -191.53,-72.44 -208.28,-55.41 -221.21,-35.27 -234.14,-15.13 -241.83,4.27 -249.53,23.68 -251.51,47.14 -253.49,70.60 -249.98,89.85 -246.46,109.10 -237.07,126.34 -227.69,143.59 -215.83,156.56 -203.96,169.54 -183.10,179.44 -162.23,189.35 -137.04,192.71 -111.85,196.07 -86.30,193.61 -60.75,191.15 -25.34,181.11 10.07,171.08 39.93,159.77 69.78,148.46 88.81,139.49 107.84,130.52 121.83,123.58 135.83,116.64 136.23,116.52 136.64,116.39 137.06,116.40 137.49,116.42 137.89,116.56 138.29,116.71 138.62,116.97 138.95,117.24 139.18,117.60 139.41,117.96 139.51,118.37 139.61,118.78 139.58,119.20 139.54,119.63 139.38,120.02 139.21,120.41 138.93,120.73 138.64,121.04 138.27,121.25 137.90,121.46 137.48,121.54 137.07,121.62 136.65,121.56 136.23,121.51 135.84,121.32 135.46,121.13 135.16,120.83 134.86,120.53 134.67,120.15 134.48,119.77 134.43,119.35 134.37,118.92 134.45,118.51 134.53,118.09 134.74,117.72 134.95,117.35 135.26,117.07 135.58,116.78 135.97,116.61 136.36,116.45 136.78,116.41 137.21,116.38 137.62,116.48 138.03,116.58 138.39,116.81 138.75,117.04 139.01,117.37 139.28,117.70 139.43,118.10 139.57,118.50 139.59,118.92 139.60,119.35 139.47,119.76 139.35,120.16 139.10,120.51 138.85,120.85 138.51,121.10 138.16,121.35 138.16,121.35 138.16,121.35 124.18,128.30 110.19,135.26 91.36,145.09 72.54,154.92 43.09,168.91 13.64,182.89 -22.83,194.48 -59.31,206.08 -86.58,208.51 -113.85,210.94 -141.22,206.88 -168.59,202.83 -191.59,191.21 -214.59,179.58 -227.45,164.92 -240.32,150.25 -249.89,130.86 -259.46,111.47 -262.66,90.52 -265.86,69.56 -263.35,44.44 -260.85,19.31 -252.57,-1.18 -244.29,-21.68 -230.45,-42.68 -216.62,-63.67 -198.81,-81.21 -181.01,-98.74 -162.27,-111.18 -143.52,-123.63 -122.84,-133.02 -102.15,-142.42 -83.15,-146.58 -64.15,-150.75 -48.21,-150.14 -32.26,-149.53 -15.53,-145.20 1.20,-140.87 11.44,-133.58 21.68,-126.28 29.62,-115.09 37.56,-103.89 41.08,-90.99 44.60,-78.09 44.37,-64.83 44.14,-51.57 41.49,-36.66 38.84,-21.74 34.02,-7.51 29.19,6.71 22.82,18.50 16.44,30.29 7.80,41.92 -0.84,53.56 -10.20,63.00 -19.57,72.44 -28.79,78.41 -38.02,84.38 -48.76,88.49 -59.50,92.60 -69.20,92.26 -78.89,91.91 -87.16,87.77 -95.42,83.63 -100.24,77.48 -105.05,71.34 -107.98,63.31 -110.90,55.28 -111.18,47.02 -111.46,38.75 -109.40,30.73 -107.35,22.71 -102.67,13.49 -97.99,4.27 -91.41,-3.79 -84.83,-11.85 -76.56,-18.76 -68.30,-25.67 -58.11,-31.33 -47.93,-37.00 -38.70,-39.86 -29.47,-42.72 -21.42,-42.99 -13.36,-43.25 -7.45,-41.63 -1.53,-40.00 2.16,-37.17 5.86,-34.35 8.07,-30.99 10.27,-27.63 11.20,-23.65 12.12,-19.67 11.89,-16.12 11.66,-12.57 10.65,-9.41 9.64,-6.25 8.07,-3.36 6.50,-0.47 4.28,0.62 2.05,1.71 1.82,1.93 1.58,2.15 1.30,2.31 1.02,2.47 0.71,2.56 0.40,2.64 0.08,2.65 -0.24,2.66 -0.55,2.59 -0.87,2.53 -1.16,2.39 -1.45,2.24 -1.70,2.04 -1.95,1.83 -2.14,1.57 -2.33,1.31 -2.45,1.01 -2.58,0.71 -2.62,0.40 -2.67,0.08 -2.64,-0.24 -2.61,-0.56 -2.51,-0.86 -2.40,-1.17 -2.23,-1.44 -2.05,-1.71 -2.05,-1.71 L -2.05,-1.71 Z"></path></g><g stroke-opacity="0.6" fill-opacity="0.6" transform="translate(207 202) rotate(0 16 -16.5)" stroke="none"><path fill="#1e1e1e" d="M 2.72,0.45 Q 2.72,0.45 3.09,2.28 3.45,4.12 3.31,4.59 3.17,5.06 2.92,5.49 2.67,5.91 2.33,6.26 1.99,6.62 1.57,6.88 1.16,7.14 0.69,7.29 0.22,7.45 -0.26,7.49 -0.75,7.52 -1.24,7.44 -1.72,7.36 -2.17,7.17 -2.63,6.97 -3.02,6.67 -3.41,6.38 -3.72,6.00 -4.03,5.61 -4.24,5.17 -4.45,4.72 -4.54,4.24 -4.64,3.76 -4.62,3.27 -4.60,2.77 -4.40,-0.20 -4.20,-3.18 -3.89,-6.22 -3.58,-9.25 -2.50,-12.63 -1.42,-16.00 -0.42,-18.75 0.56,-21.50 3.18,-25.90 5.81,-30.31 7.41,-31.84 9.02,-33.37 11.33,-34.29 13.65,-35.21 15.82,-34.75 18.00,-34.29 19.49,-32.51 20.98,-30.73 21.54,-28.40 22.10,-26.08 22.26,-23.41 22.42,-20.74 22.18,-18.22 21.94,-15.69 21.53,-13.21 21.13,-10.73 20.68,-8.47 20.23,-6.20 19.82,-4.99 19.40,-3.78 19.21,-3.24 19.02,-2.69 18.71,-2.20 18.40,-1.72 17.98,-1.32 17.56,-0.92 17.06,-0.63 16.56,-0.35 16.00,-0.19 15.45,-0.03 14.87,-0.01 14.29,0.00 13.72,-0.11 13.16,-0.23 12.64,-0.48 12.12,-0.73 11.67,-1.10 11.23,-1.47 10.88,-1.94 10.54,-2.40 10.31,-2.93 10.09,-3.47 10.00,-4.04 9.91,-4.61 9.96,-5.18 10.01,-5.76 9.82,-10.32 9.62,-14.89 10.43,-18.21 11.23,-21.54 12.15,-24.70 13.08,-27.86 14.44,-30.91 15.80,-33.96 17.40,-36.35 18.99,-38.74 20.53,-40.29 22.06,-41.83 25.24,-42.67 28.42,-43.50 30.60,-42.63 32.78,-41.76 34.09,-39.90 35.40,-38.04 36.04,-35.30 36.68,-32.55 36.56,-29.74 36.44,-26.94 36.08,-24.35 35.71,-21.76 35.28,-18.98 34.85,-16.21 34.02,-13.29 33.18,-10.36 30.28,-10.70 27.37,-11.04 26.46,-13.97 25.55,-16.89 26.08,-19.02 26.60,-21.16 28.05,-21.66 29.50,-22.17 29.43,-22.59 29.37,-23.01 29.44,-23.43 29.51,-23.85 29.71,-24.22 29.91,-24.60 30.22,-24.89 30.53,-25.18 30.92,-25.35 31.31,-25.53 31.73,-25.57 32.15,-25.62 32.57,-25.52 32.98,-25.43 33.34,-25.21 33.71,-24.99 33.98,-24.66 34.25,-24.34 34.41,-23.94 34.56,-23.55 34.58,-23.12 34.60,-22.70 34.49,-22.29 34.37,-21.88 34.13,-21.53 33.89,-21.18 33.55,-20.92 33.21,-20.67 32.81,-20.53 32.41,-20.40 31.98,-20.40 31.56,-20.41 31.15,-20.54 30.75,-20.68 30.42,-20.94 30.08,-21.20 29.84,-21.55 29.61,-21.90 29.49,-22.32 29.38,-22.73 29.41,-23.15 29.43,-23.57 29.59,-23.97 29.75,-24.36 30.03,-24.68 30.31,-25.01 30.67,-25.22 31.04,-25.44 31.45,-25.53 31.87,-25.62 32.29,-25.57 32.71,-25.52 33.10,-25.34 33.48,-25.16 33.79,-24.87 34.09,-24.57 34.29,-24.20 34.49,-23.82 34.49,-23.82 34.49,-23.82 35.18,-20.26 35.87,-16.70 35.38,-14.59 34.88,-12.49 34.38,-10.10 33.88,-7.71 32.90,-5.82 31.93,-3.93 29.93,-2.99 27.94,-2.05 25.05,-4.66 22.16,-7.26 22.61,-10.29 23.06,-13.32 23.75,-15.61 24.45,-17.89 24.89,-20.60 25.34,-23.31 25.69,-25.52 26.05,-27.72 27.27,-31.24 28.49,-34.77 26.52,-32.37 24.55,-29.98 23.45,-27.59 22.36,-25.19 21.55,-22.30 20.74,-19.42 19.96,-14.57 19.19,-9.72 19.29,-6.75 19.40,-3.79 19.21,-3.24 19.03,-2.69 18.71,-2.20 18.40,-1.72 17.98,-1.32 17.56,-0.92 17.06,-0.64 16.56,-0.35 16.00,-0.19 15.45,-0.03 14.87,-0.01 14.29,0.00 13.72,-0.11 13.16,-0.23 12.64,-0.48 12.12,-0.73 11.67,-1.10 11.23,-1.47 10.88,-1.94 10.54,-2.40 10.31,-2.93 10.09,-3.47 10.00,-4.04 9.91,-4.61 9.96,-5.18 10.01,-5.76 11.01,-9.00 12.01,-12.23 12.62,-16.28 13.23,-20.33 12.89,-22.56 12.55,-24.78 10.52,-21.67 8.49,-18.56 7.49,-15.94 6.49,-13.32 5.59,-10.83 4.69,-8.34 4.40,-5.69 4.11,-3.05 3.78,0.53 3.45,4.12 3.31,4.59 3.17,5.06 2.92,5.49 2.67,5.91 2.33,6.26 1.99,6.62 1.57,6.88 1.16,7.14 0.69,7.29 0.22,7.45 -0.26,7.49 -0.75,7.52 -1.24,7.44 -1.72,7.36 -2.17,7.17 -2.63,6.97 -3.02,6.68 -3.41,6.38 -3.72,6.00 -4.03,5.61 -4.24,5.17 -4.45,4.72 -4.54,4.24 -4.64,3.76 -4.62,3.27 -4.60,2.77 -3.66,1.16 -2.72,-0.45 -2.63,-0.77 -2.54,-1.09 -2.37,-1.38 -2.20,-1.67 -1.97,-1.91 -1.74,-2.15 -1.45,-2.32 -1.17,-2.50 -0.85,-2.60 -0.54,-2.71 -0.20,-2.73 0.12,-2.76 0.45,-2.71 0.78,-2.65 1.08,-2.52 1.39,-2.39 1.65,-2.18 1.92,-1.98 2.13,-1.72 2.34,-1.46 2.48,-1.16 2.62,-0.86 2.69,-0.53 2.75,-0.21 2.74,0.12 2.72,0.45 2.72,0.45 L 2.72,0.45 Z"></path></g><g transform="translate(342 103) rotate(0 53 43.5)" stroke="none"><path fill="#1e1e1e" d="M 2.16,1.85 Q 2.16,1.85 0.99,4.33 -0.18,6.80 -1.48,9.35 -2.78,11.89 -4.10,15.73 -5.41,19.56 -6.47,23.99 -7.54,28.41 -8.50,33.96 -9.46,39.51 -9.77,44.57 -10.08,49.62 -9.58,55.18 -9.07,60.74 -7.30,65.38 -5.53,70.01 -2.76,73.03 0.00,76.04 6.01,77.50 12.01,78.96 22.67,78.14 33.34,77.32 46.58,74.70 59.81,72.08 77.46,66.86 95.11,61.64 108.11,57.08 121.11,52.52 121.53,52.44 121.95,52.37 122.37,52.43 122.79,52.49 123.17,52.69 123.55,52.88 123.85,53.18 124.14,53.49 124.33,53.87 124.51,54.25 124.57,54.67 124.62,55.09 124.54,55.51 124.45,55.93 124.24,56.29 124.02,56.66 123.71,56.94 123.39,57.22 122.99,57.39 122.60,57.55 122.18,57.58 121.75,57.61 121.34,57.50 120.93,57.40 120.58,57.16 120.22,56.93 119.96,56.60 119.69,56.26 119.55,55.86 119.41,55.46 119.40,55.04 119.40,54.61 119.53,54.21 119.65,53.80 119.91,53.46 120.16,53.12 120.51,52.87 120.85,52.63 121.26,52.51 121.67,52.39 122.09,52.40 122.52,52.42 122.91,52.57 123.31,52.72 123.64,52.99 123.97,53.26 124.19,53.62 124.42,53.98 124.52,54.40 124.62,54.81 124.58,55.23 124.54,55.66 124.36,56.04 124.19,56.43 123.91,56.75 123.62,57.06 123.25,57.26 122.87,57.47 122.87,57.47 122.88,57.47 109.91,62.14 96.95,66.81 79.48,74.08 62.00,81.35 48.06,85.13 34.11,88.90 21.42,89.58 8.72,90.26 0.35,87.15 -8.02,84.04 -12.03,79.00 -16.04,73.95 -18.04,67.75 -20.03,61.54 -20.28,55.13 -20.53,48.71 -19.91,43.17 -19.29,37.63 -18.05,31.78 -16.82,25.94 -15.42,21.13 -14.02,16.33 -12.26,11.97 -10.49,7.62 -8.60,4.43 -6.71,1.24 -4.44,-0.30 -2.16,-1.85 -1.91,-2.09 -1.66,-2.32 -1.35,-2.48 -1.05,-2.65 -0.72,-2.74 -0.39,-2.82 -0.04,-2.83 0.29,-2.84 0.63,-2.76 0.96,-2.68 1.27,-2.53 1.58,-2.37 1.84,-2.15 2.10,-1.92 2.30,-1.64 2.50,-1.36 2.63,-1.04 2.76,-0.72 2.80,-0.38 2.85,-0.04 2.81,0.29 2.78,0.63 2.66,0.96 2.55,1.28 2.35,1.57 2.16,1.85 2.16,1.85 L 2.16,1.85 Z"></path></g></svg>