<svg version="1.1" xmlns="http://www.w3.org/2000/svg" viewBox="0 0 463 428" width="1389" height="1284">
  <!-- svg-source:excalidraw -->
  
  <defs>
    <style class="style-fonts">
      @font-face {
        font-family: "Virgil";
        src: url("https://excalidraw.com/Virgil.woff2");
      }
      @font-face {
        font-family: "Cascadia";
        src: url("https://excalidraw.com/Cascadia.woff2");
      }
      @font-face {
        font-family: "Assistant";
        src: url("https://excalidraw.com/Assistant-Regular.woff2");
      }
    </style>
    
  </defs>
  <g transform="translate(68 293) rotate(0 130.5 -105.5)" stroke="none"><path fill="#e03131" d="M 2.40,1.68 Q 2.40,1.68 1.35,5.22 0.30,8.77 -0.82,11.12 -1.94,13.46 -6.56,13.69 -11.19,13.92 -7.89,9.24 -4.58,4.55 -0.61,-2.44 3.34,-9.44 9.11,-19.70 14.87,-29.96 23.65,-45.28 32.44,-60.60 42.23,-77.19 52.02,-93.78 62.54,-110.66 73.06,-127.54 85.98,-145.23 98.91,-162.92 110.20,-176.81 121.48,-190.70 131.61,-201.08 141.73,-211.47 150.57,-218.63 159.42,-225.80 167.64,-229.24 175.87,-232.67 183.62,-230.91 191.37,-229.14 196.64,-220.25 201.91,-211.35 203.59,-198.36 205.27,-185.37 204.43,-169.08 203.60,-152.79 200.92,-134.01 198.23,-115.23 194.50,-96.27 190.78,-77.30 187.19,-60.90 183.61,-44.50 180.67,-32.03 177.72,-19.56 176.21,-13.71 174.69,-7.86 174.37,-7.00 174.05,-6.14 173.54,-5.38 173.02,-4.62 172.34,-4.01 171.65,-3.39 170.84,-2.96 170.03,-2.53 169.14,-2.30 168.25,-2.08 167.33,-2.07 166.42,-2.06 165.52,-2.28 164.63,-2.49 163.81,-2.91 163.00,-3.33 162.31,-3.94 161.62,-4.54 161.09,-5.30 160.56,-6.05 160.23,-6.90 159.90,-7.76 159.78,-8.67 159.67,-9.58 159.77,-10.49 159.87,-11.41 157.60,-19.71 155.32,-28.02 153.08,-40.83 150.85,-53.64 146.31,-68.41 141.78,-83.18 134.11,-95.23 126.44,-107.28 115.41,-112.54 104.38,-117.81 87.96,-114.57 71.54,-111.33 46.94,-94.99 22.33,-78.65 2.94,-60.87 -16.44,-43.10 -26.90,-30.21 -37.35,-17.32 -38.10,-16.78 -38.86,-16.25 -39.72,-15.91 -40.58,-15.57 -41.50,-15.45 -42.41,-15.33 -43.33,-15.43 -44.25,-15.53 -45.12,-15.85 -45.99,-16.17 -46.75,-16.68 -47.52,-17.20 -48.14,-17.88 -48.76,-18.57 -49.20,-19.38 -49.64,-20.19 -49.87,-21.09 -50.10,-21.98 -50.11,-22.91 -50.13,-23.83 -49.91,-24.73 -49.70,-25.63 -49.28,-26.46 -48.86,-27.28 -48.26,-27.98 -47.65,-28.68 -38.58,-27.75 -29.51,-26.82 -6.22,-39.40 17.07,-51.98 57.95,-74.48 98.84,-96.98 151.27,-122.80 203.69,-148.61 236.60,-164.74 269.51,-180.86 293.65,-193.10 317.80,-205.33 318.20,-205.46 318.60,-205.59 319.03,-205.59 319.45,-205.58 319.85,-205.44 320.26,-205.30 320.59,-205.04 320.93,-204.78 321.16,-204.42 321.39,-204.07 321.50,-203.66 321.61,-203.24 321.58,-202.82 321.55,-202.40 321.39,-202.00 321.23,-201.61 320.95,-201.29 320.67,-200.97 320.30,-200.76 319.93,-200.54 319.52,-200.46 319.10,-200.37 318.68,-200.42 318.26,-200.47 317.88,-200.66 317.49,-200.84 317.19,-201.14 316.88,-201.43 316.69,-201.81 316.49,-202.19 316.43,-202.61 316.37,-203.03 316.44,-203.45 316.52,-203.87 316.72,-204.24 316.93,-204.61 317.24,-204.90 317.55,-205.19 317.94,-205.36 318.33,-205.54 318.75,-205.58 319.17,-205.62 319.59,-205.52 320.00,-205.42 320.36,-205.20 320.72,-204.97 320.99,-204.65 321.26,-204.32 321.42,-203.92 321.57,-203.53 321.58,-203.10 321.60,-202.68 321.48,-202.27 321.36,-201.86 321.12,-201.51 320.88,-201.16 320.54,-200.91 320.19,-200.66 320.19,-200.66 320.19,-200.66 296.18,-188.17 272.17,-175.68 239.93,-158.35 207.69,-141.03 156.87,-112.49 106.06,-83.95 65.03,-61.09 24.00,-38.23 -3.37,-25.25 -30.76,-12.27 -34.05,-14.79 -37.35,-17.32 -38.10,-16.78 -38.86,-16.25 -39.72,-15.91 -40.58,-15.57 -41.50,-15.45 -42.41,-15.33 -43.33,-15.43 -44.25,-15.53 -45.12,-15.85 -45.99,-16.16 -46.75,-16.68 -47.52,-17.20 -48.14,-17.88 -48.76,-18.57 -49.20,-19.38 -49.64,-20.19 -49.87,-21.09 -50.10,-21.98 -50.11,-22.91 -50.13,-23.83 -49.91,-24.73 -49.70,-25.63 -49.28,-26.46 -48.86,-27.28 -48.26,-27.98 -47.65,-28.68 -37.15,-41.49 -26.64,-54.31 -6.18,-72.67 14.26,-91.03 41.48,-108.31 68.70,-125.59 88.98,-128.38 109.27,-131.18 123.71,-123.59 138.16,-116.00 147.13,-101.87 156.11,-87.74 160.97,-72.02 165.83,-56.29 168.12,-43.35 170.41,-30.42 171.31,-23.55 172.22,-16.68 173.46,-12.27 174.69,-7.86 174.37,-7.00 174.05,-6.14 173.54,-5.38 173.02,-4.62 172.34,-4.01 171.65,-3.39 170.84,-2.96 170.03,-2.53 169.14,-2.30 168.25,-2.08 167.34,-2.07 166.42,-2.06 165.52,-2.28 164.63,-2.49 163.81,-2.91 163.00,-3.33 162.31,-3.94 161.62,-4.54 161.09,-5.29 160.56,-6.05 160.23,-6.90 159.90,-7.76 159.78,-8.67 159.67,-9.58 159.77,-10.49 159.87,-11.41 161.46,-17.24 163.04,-23.08 166.02,-35.40 169.01,-47.72 172.62,-63.96 176.23,-80.19 179.96,-98.77 183.68,-117.34 186.35,-135.48 189.03,-153.63 189.98,-168.75 190.93,-183.86 190.05,-194.72 189.16,-205.57 187.04,-212.19 184.92,-218.81 182.06,-219.73 179.20,-220.64 173.27,-218.21 167.35,-215.77 159.13,-209.13 150.91,-202.48 141.17,-192.54 131.44,-182.60 120.35,-168.97 109.27,-155.35 96.61,-138.04 83.96,-120.74 73.53,-104.00 63.09,-87.25 53.34,-70.72 43.59,-54.19 34.82,-38.93 26.05,-23.67 20.27,-13.39 14.48,-3.12 10.22,4.37 5.96,11.87 0.54,17.79 -4.87,23.71 -9.72,20.94 -14.57,18.18 -14.38,15.35 -14.19,12.52 -13.01,10.02 -11.82,7.52 -10.09,5.12 -8.35,2.72 -5.37,0.52 -2.40,-1.68 -2.16,-1.94 -1.92,-2.20 -1.63,-2.40 -1.34,-2.60 -1.01,-2.72 -0.68,-2.84 -0.33,-2.88 0.01,-2.92 0.36,-2.88 0.71,-2.83 1.04,-2.71 1.37,-2.58 1.66,-2.38 1.95,-2.18 2.18,-1.91 2.42,-1.64 2.58,-1.33 2.74,-1.02 2.82,-0.67 2.91,-0.33 2.90,0.01 2.90,0.37 2.81,0.71 2.73,1.05 2.56,1.36 2.39,1.68 2.40,1.68 L 2.40,1.68 Z"></path></g><g transform="translate(286 144) rotate(0 83 -12.5)" stroke="none"><path fill="#e03131" d="M 2.83,0.25 Q 2.83,0.25 4.01,3.54 5.19,6.84 5.39,10.09 5.60,13.34 6.05,19.15 6.50,24.96 6.99,31.75 7.48,38.54 8.25,45.62 9.02,52.70 9.65,59.54 10.28,66.39 10.55,72.59 10.82,78.78 10.97,83.72 11.13,88.65 11.33,92.77 11.53,96.89 11.02,100.19 10.51,103.50 10.72,103.02 10.93,102.55 10.71,103.41 10.48,104.27 10.06,105.06 9.64,105.85 9.04,106.51 8.44,107.17 7.70,107.67 6.96,108.17 6.12,108.48 5.28,108.78 4.40,108.88 3.51,108.98 2.62,108.86 1.74,108.75 0.91,108.42 0.08,108.09 -0.64,107.58 -1.37,107.06 -1.96,106.39 -2.54,105.72 -2.95,104.92 -3.35,104.13 -3.56,103.26 -3.76,102.39 -3.75,101.49 -3.74,100.60 -3.40,93.32 -3.05,86.04 -1.88,78.20 -0.71,70.36 0.95,58.77 2.62,47.18 4.48,36.12 6.35,25.05 8.31,15.39 10.27,5.72 12.61,-2.09 14.95,-9.92 17.53,-15.58 20.11,-21.25 22.91,-25.10 25.70,-28.95 30.47,-30.61 35.24,-32.27 39.28,-30.55 43.32,-28.83 46.05,-24.87 48.78,-20.91 50.23,-15.20 51.68,-9.49 52.74,-3.30 53.80,2.88 54.27,8.02 54.74,13.17 54.65,19.08 54.57,24.99 54.53,28.74 54.49,32.49 54.47,34.67 54.46,36.84 54.50,36.90 54.53,36.96 54.41,37.86 54.29,38.76 53.97,39.61 53.64,40.45 53.12,41.19 52.59,41.94 51.91,42.53 51.23,43.13 50.42,43.54 49.61,43.96 48.73,44.16 47.85,44.37 46.94,44.37 46.03,44.36 45.16,44.13 44.28,43.91 43.48,43.48 42.68,43.05 42.01,42.44 41.33,41.84 40.82,41.09 40.32,40.34 40.00,39.49 39.69,38.63 39.59,37.73 39.49,36.83 39.21,34.08 38.93,31.32 38.80,26.59 38.66,21.85 38.67,12.09 38.67,2.33 38.99,-9.63 39.31,-21.61 40.31,-34.89 41.31,-48.18 43.49,-61.81 45.67,-75.44 48.06,-85.95 50.45,-96.45 53.63,-104.51 56.81,-112.57 59.74,-118.18 62.68,-123.79 67.27,-127.58 71.86,-131.36 77.48,-131.18 83.09,-130.99 88.47,-125.22 93.85,-119.45 97.36,-109.84 100.87,-100.23 103.70,-87.83 106.52,-75.43 109.14,-60.67 111.76,-45.91 114.33,-30.16 116.89,-14.42 120.00,0.70 123.11,15.84 126.74,30.51 130.36,45.19 133.56,56.19 136.76,67.19 139.77,73.15 142.77,79.11 144.94,80.77 147.11,82.43 152.11,80.42 157.10,78.42 161.41,76.06 165.71,73.70 166.11,73.56 166.51,73.41 166.94,73.40 167.36,73.39 167.77,73.52 168.17,73.65 168.52,73.90 168.86,74.15 169.11,74.49 169.35,74.84 169.48,75.25 169.60,75.65 169.59,76.08 169.57,76.50 169.42,76.90 169.27,77.30 169.01,77.63 168.74,77.96 168.38,78.19 168.02,78.41 167.61,78.51 167.19,78.61 166.77,78.58 166.35,78.54 165.96,78.37 165.57,78.20 165.25,77.92 164.94,77.63 164.73,77.26 164.52,76.89 164.45,76.47 164.37,76.05 164.43,75.63 164.49,75.21 164.68,74.83 164.87,74.45 165.17,74.15 165.47,73.85 165.86,73.67 166.24,73.48 166.66,73.42 167.08,73.37 167.50,73.45 167.91,73.53 168.28,73.75 168.65,73.96 168.93,74.27 169.22,74.59 169.38,74.98 169.55,75.38 169.58,75.80 169.61,76.22 169.51,76.63 169.40,77.05 169.17,77.40 168.94,77.76 168.61,78.02 168.28,78.29 168.28,78.29 168.28,78.29 164.01,80.72 159.74,83.15 153.14,87.62 146.54,92.10 139.01,90.06 131.47,88.02 126.53,79.86 121.59,71.71 118.27,60.32 114.95,48.94 111.35,33.94 107.74,18.94 104.68,3.49 101.61,-11.95 99.10,-27.59 96.59,-43.22 94.06,-57.64 91.52,-72.07 88.96,-83.68 86.40,-95.29 84.02,-102.95 81.64,-110.61 78.46,-113.71 75.28,-116.80 72.78,-111.99 70.28,-107.17 67.44,-100.18 64.60,-93.19 62.30,-83.17 60.00,-73.14 57.90,-60.12 55.80,-47.09 54.85,-34.19 53.90,-21.28 53.69,-9.51 53.47,2.25 53.58,11.84 53.69,21.43 53.81,25.68 53.92,29.93 54.23,33.45 54.53,36.96 54.41,37.86 54.29,38.76 53.97,39.61 53.64,40.45 53.12,41.19 52.59,41.94 51.91,42.53 51.23,43.13 50.42,43.54 49.61,43.96 48.73,44.16 47.85,44.37 46.94,44.37 46.04,44.36 45.16,44.13 44.28,43.91 43.48,43.48 42.68,43.05 42.01,42.45 41.33,41.84 40.82,41.09 40.32,40.34 40.00,39.49 39.69,38.64 39.59,37.73 39.49,36.83 39.53,36.77 39.58,36.70 39.61,34.51 39.64,32.32 39.69,28.51 39.73,24.70 39.86,19.58 39.98,14.46 39.59,9.89 39.20,5.33 38.25,-0.51 37.29,-6.35 36.70,-10.00 36.11,-13.66 35.99,-16.80 35.87,-19.95 34.33,-17.65 32.80,-15.36 30.58,-10.61 28.36,-5.87 26.19,1.31 24.01,8.50 22.12,17.94 20.22,27.37 18.42,38.25 16.61,49.12 15.07,60.74 13.53,72.36 12.55,79.90 11.57,87.44 11.11,92.05 10.66,96.66 10.79,99.60 10.93,102.54 10.71,103.41 10.48,104.27 10.06,105.06 9.64,105.85 9.04,106.51 8.44,107.17 7.70,107.67 6.96,108.17 6.12,108.48 5.28,108.78 4.40,108.88 3.51,108.98 2.62,108.86 1.74,108.75 0.91,108.42 0.08,108.09 -0.64,107.58 -1.37,107.07 -1.96,106.39 -2.54,105.72 -2.95,104.92 -3.35,104.13 -3.56,103.26 -3.76,102.39 -3.75,101.50 -3.74,100.60 -2.71,98.81 -1.67,97.03 -1.56,92.98 -1.45,88.94 -1.52,84.12 -1.58,79.31 -1.84,73.41 -2.09,67.50 -2.68,60.75 -3.27,54.00 -4.03,46.67 -4.78,39.33 -5.17,32.52 -5.56,25.70 -5.82,19.79 -6.09,13.87 -6.21,9.84 -6.34,5.80 -4.58,2.77 -2.83,-0.25 -2.76,-0.59 -2.69,-0.92 -2.54,-1.23 -2.39,-1.54 -2.17,-1.81 -1.95,-2.07 -1.67,-2.27 -1.39,-2.48 -1.08,-2.61 -0.76,-2.74 -0.42,-2.79 -0.08,-2.84 0.25,-2.81 0.59,-2.78 0.92,-2.67 1.24,-2.56 1.53,-2.37 1.82,-2.18 2.05,-1.93 2.29,-1.68 2.46,-1.38 2.63,-1.08 2.72,-0.75 2.81,-0.42 2.82,-0.08 2.83,0.25 2.83,0.25 L 2.83,0.25 Z"></path></g><g transform="translate(214 149) rotate(0 110.5 -68)" stroke="none"><path fill="#e03131" d="M -1.17,-2.35 Q -1.17,-2.35 -0.63,-4.11 -0.09,-5.87 2.33,-8.28 4.76,-10.70 8.99,-13.99 13.22,-17.28 16.29,-19.30 19.36,-21.33 33.76,-30.63 48.16,-39.94 62.35,-48.59 76.54,-57.24 90.33,-65.30 104.12,-73.35 118.56,-81.89 133.00,-90.43 145.26,-97.28 157.52,-104.14 167.03,-109.36 176.54,-114.59 183.62,-118.79 190.70,-122.99 195.38,-125.96 200.06,-128.93 202.23,-130.45 204.40,-131.97 204.48,-132.77 204.57,-133.58 205.14,-134.31 205.72,-135.04 206.45,-135.61 207.19,-136.18 208.04,-136.56 208.89,-136.94 209.80,-137.11 210.72,-137.27 211.65,-137.21 212.58,-137.15 213.46,-136.87 214.35,-136.59 215.15,-136.11 215.94,-135.62 216.60,-134.96 217.25,-134.30 217.73,-133.50 218.21,-132.70 218.48,-131.81 218.75,-130.92 218.81,-130.00 218.86,-129.07 218.69,-128.15 218.52,-127.24 218.13,-126.39 217.75,-125.54 211.18,-129.35 204.62,-133.16 205.19,-133.88 205.75,-134.59 206.47,-135.15 207.19,-135.71 208.02,-136.08 208.85,-136.45 209.74,-136.61 210.64,-136.77 211.54,-136.71 212.45,-136.65 213.32,-136.38 214.19,-136.10 214.96,-135.63 215.74,-135.16 216.38,-134.51 217.02,-133.87 217.49,-133.09 217.95,-132.31 218.22,-131.44 218.49,-130.57 218.54,-129.66 218.59,-128.75 218.42,-127.86 218.26,-126.96 217.88,-126.14 217.50,-125.31 211.47,-129.08 205.44,-132.85 205.98,-133.54 206.52,-134.22 207.20,-134.75 207.89,-135.29 208.68,-135.64 209.48,-135.99 210.34,-136.15 211.19,-136.30 212.06,-136.24 212.93,-136.19 213.76,-135.93 214.59,-135.67 215.33,-135.21 216.07,-134.76 216.68,-134.14 217.30,-133.52 217.74,-132.78 218.19,-132.03 218.45,-131.20 218.70,-130.37 218.75,-129.50 218.80,-128.63 218.64,-127.78 218.48,-126.92 218.12,-126.13 217.76,-125.34 214.79,-123.75 211.81,-122.15 209.51,-122.67 207.20,-123.19 204.67,-124.66 202.13,-126.13 198.40,-128.13 194.67,-130.14 195.94,-130.14 197.22,-130.15 196.45,-129.81 195.68,-129.47 194.86,-129.33 194.03,-129.18 193.19,-129.24 192.35,-129.30 191.56,-129.55 190.76,-129.81 190.04,-130.25 189.32,-130.69 188.74,-131.28 188.15,-131.88 187.72,-132.60 187.29,-133.33 187.04,-134.13 186.80,-134.93 186.76,-135.77 186.71,-136.61 186.87,-137.43 187.03,-138.26 187.38,-139.02 187.73,-139.78 188.25,-140.44 188.77,-141.10 189.44,-141.61 190.10,-142.12 193.52,-141.28 196.95,-140.44 200.41,-142.24 203.87,-144.05 206.75,-144.56 209.62,-145.08 212.63,-145.25 215.63,-145.42 219.91,-142.84 224.19,-140.26 225.43,-136.17 226.66,-132.07 225.51,-127.19 224.36,-122.31 221.17,-117.07 217.98,-111.83 211.66,-106.49 205.34,-101.15 201.64,-97.60 197.94,-94.06 195.48,-91.19 193.03,-88.33 192.71,-88.05 192.39,-87.77 192.00,-87.60 191.60,-87.44 191.18,-87.41 190.76,-87.38 190.35,-87.49 189.93,-87.59 189.58,-87.82 189.22,-88.06 188.96,-88.39 188.70,-88.72 188.55,-89.12 188.41,-89.53 188.40,-89.95 188.40,-90.37 188.52,-90.78 188.65,-91.18 188.90,-91.53 189.16,-91.87 189.50,-92.11 189.85,-92.36 190.26,-92.48 190.67,-92.60 191.09,-92.59 191.52,-92.57 191.91,-92.42 192.31,-92.27 192.64,-92.00 192.97,-91.73 193.19,-91.37 193.42,-91.01 193.52,-90.60 193.61,-90.18 193.58,-89.76 193.54,-89.34 193.37,-88.95 193.19,-88.56 192.91,-88.25 192.62,-87.93 192.25,-87.73 191.88,-87.52 191.46,-87.44 191.04,-87.37 190.62,-87.43 190.20,-87.49 189.82,-87.68 189.44,-87.88 189.14,-88.18 188.85,-88.48 188.66,-88.87 188.48,-89.25 188.42,-89.67 188.37,-90.09 188.45,-90.51 188.54,-90.93 188.75,-91.29 188.96,-91.66 188.96,-91.66 188.96,-91.66 191.29,-94.63 193.61,-97.60 196.38,-101.95 199.16,-106.29 202.65,-112.76 206.14,-119.22 208.45,-122.82 210.76,-126.42 211.41,-128.92 212.06,-131.43 209.32,-130.93 206.58,-130.44 204.24,-129.99 201.90,-129.54 198.75,-128.94 195.61,-128.34 193.18,-129.43 190.76,-130.52 193.99,-130.34 197.22,-130.15 196.45,-129.81 195.68,-129.47 194.86,-129.33 194.03,-129.18 193.19,-129.24 192.36,-129.30 191.56,-129.55 190.76,-129.81 190.04,-130.25 189.33,-130.69 188.74,-131.28 188.15,-131.88 187.72,-132.60 187.29,-133.33 187.04,-134.13 186.80,-134.93 186.76,-135.77 186.71,-136.61 186.87,-137.43 187.03,-138.26 187.38,-139.02 187.73,-139.78 188.25,-140.44 188.77,-141.10 189.44,-141.61 190.10,-142.12 190.61,-142.24 191.11,-142.36 193.22,-142.91 195.34,-143.46 198.98,-142.49 202.62,-141.53 204.60,-140.49 206.57,-139.45 208.63,-137.69 210.69,-135.92 208.06,-134.39 205.44,-132.85 205.98,-133.54 206.52,-134.22 207.20,-134.75 207.89,-135.29 208.68,-135.64 209.48,-135.99 210.33,-136.15 211.19,-136.30 212.06,-136.24 212.93,-136.19 213.76,-135.93 214.58,-135.67 215.33,-135.21 216.07,-134.76 216.68,-134.14 217.30,-133.53 217.74,-132.78 218.19,-132.03 218.44,-131.20 218.70,-130.37 218.75,-129.50 218.80,-128.63 218.64,-127.78 218.48,-126.92 218.12,-126.13 217.76,-125.34 211.19,-129.25 204.62,-133.16 205.19,-133.88 205.75,-134.59 206.47,-135.15 207.19,-135.71 208.02,-136.08 208.85,-136.45 209.74,-136.61 210.64,-136.77 211.54,-136.71 212.45,-136.65 213.32,-136.38 214.19,-136.10 214.96,-135.63 215.74,-135.16 216.38,-134.51 217.02,-133.87 217.49,-133.09 217.95,-132.31 218.22,-131.44 218.49,-130.57 218.54,-129.66 218.59,-128.75 218.42,-127.86 218.26,-126.96 217.88,-126.14 217.50,-125.31 211.04,-129.45 204.57,-133.58 205.14,-134.31 205.72,-135.04 206.45,-135.61 207.19,-136.18 208.04,-136.56 208.89,-136.94 209.80,-137.11 210.72,-137.27 211.65,-137.21 212.58,-137.15 213.46,-136.87 214.35,-136.59 215.15,-136.11 215.94,-135.62 216.60,-134.96 217.25,-134.30 217.73,-133.50 218.21,-132.70 218.48,-131.82 218.75,-130.93 218.81,-130.00 218.86,-129.07 218.69,-128.15 218.52,-127.24 218.13,-126.39 217.75,-125.54 217.98,-126.54 218.21,-127.53 215.47,-123.51 212.73,-119.48 210.26,-117.92 207.79,-116.36 202.90,-113.44 198.01,-110.53 190.69,-106.30 183.38,-102.07 173.89,-96.92 164.41,-91.77 152.28,-85.04 140.15,-78.31 125.61,-69.77 111.08,-61.23 97.27,-53.44 83.47,-45.66 69.26,-37.34 55.05,-29.03 40.51,-20.05 25.98,-11.07 23.19,-9.32 20.41,-7.56 16.27,-4.67 12.14,-1.77 8.42,0.90 4.69,3.57 2.93,2.96 1.17,2.35 0.87,2.46 0.57,2.56 0.26,2.60 -0.05,2.63 -0.36,2.58 -0.68,2.54 -0.97,2.42 -1.26,2.30 -1.52,2.12 -1.78,1.93 -1.99,1.69 -2.19,1.45 -2.33,1.16 -2.48,0.88 -2.55,0.57 -2.62,0.26 -2.61,-0.05 -2.60,-0.36 -2.52,-0.67 -2.44,-0.98 -2.29,-1.26 -2.13,-1.53 -1.92,-1.77 -1.70,-2.00 -1.44,-2.18 -1.17,-2.35 -1.17,-2.35 L -1.17,-2.35 Z"></path></g><g transform="translate(21 417) rotate(0 109 -55)" stroke="none"><path fill="#e03131" d="M -1.34,-2.49 Q -1.34,-2.49 1.95,-5.32 5.25,-8.15 9.82,-11.09 14.39,-14.03 21.86,-18.51 29.32,-22.99 38.52,-28.37 47.72,-33.74 58.61,-39.52 69.51,-45.29 83.04,-52.11 96.58,-58.93 109.44,-65.61 122.31,-72.28 134.48,-78.05 146.65,-83.82 157.62,-88.57 168.60,-93.33 177.18,-97.33 185.76,-101.33 192.27,-104.46 198.79,-107.60 203.13,-110.05 207.48,-112.49 210.19,-113.79 212.91,-115.08 213.64,-115.64 214.37,-116.19 215.11,-116.40 215.84,-116.61 216.61,-116.64 217.38,-116.67 218.13,-116.52 218.88,-116.36 219.57,-116.03 220.27,-115.70 220.86,-115.22 221.45,-114.73 221.91,-114.12 222.37,-113.50 222.67,-112.80 222.97,-112.09 223.09,-111.33 223.21,-110.58 223.15,-109.81 223.09,-109.05 222.84,-108.32 222.60,-107.59 222.19,-106.94 221.78,-106.30 221.22,-105.77 220.67,-105.24 220.00,-104.85 219.34,-104.47 216.67,-104.70 214.00,-104.93 210.90,-105.88 207.80,-106.83 206.11,-106.62 204.42,-106.40 204.00,-106.40 203.57,-106.40 203.17,-106.54 202.77,-106.67 202.43,-106.93 202.09,-107.19 201.85,-107.54 201.61,-107.89 201.50,-108.30 201.38,-108.71 201.41,-109.13 201.43,-109.56 201.59,-109.95 201.74,-110.35 202.02,-110.67 202.29,-110.99 202.66,-111.21 203.02,-111.43 203.43,-111.53 203.85,-111.62 204.27,-111.57 204.69,-111.53 205.08,-111.35 205.47,-111.17 205.77,-110.88 206.08,-110.59 206.28,-110.21 206.48,-109.84 206.55,-109.42 206.62,-109.00 206.55,-108.58 206.49,-108.16 206.29,-107.78 206.09,-107.41 205.78,-107.12 205.47,-106.82 205.09,-106.64 204.70,-106.47 204.28,-106.42 203.86,-106.37 203.44,-106.46 203.03,-106.55 202.66,-106.77 202.30,-106.99 202.02,-107.31 201.75,-107.64 201.59,-108.03 201.43,-108.43 201.41,-108.85 201.38,-109.28 201.50,-109.69 201.61,-110.09 201.85,-110.45 202.09,-110.80 202.42,-111.06 202.76,-111.31 203.16,-111.45 203.57,-111.59 203.57,-111.59 203.57,-111.59 205.23,-111.93 206.90,-112.27 210.63,-114.23 214.37,-116.19 215.11,-116.40 215.84,-116.61 216.61,-116.64 217.38,-116.67 218.13,-116.52 218.88,-116.36 219.57,-116.03 220.26,-115.70 220.86,-115.22 221.45,-114.73 221.91,-114.12 222.37,-113.50 222.67,-112.80 222.97,-112.09 223.09,-111.33 223.21,-110.58 223.15,-109.81 223.09,-109.05 222.84,-108.32 222.60,-107.59 222.19,-106.95 221.78,-106.30 221.22,-105.77 220.67,-105.24 220.00,-104.85 219.34,-104.47 218.53,-104.13 217.71,-103.78 215.44,-102.96 213.18,-102.15 208.50,-99.62 203.83,-97.10 197.24,-93.94 190.64,-90.79 181.91,-86.76 173.18,-82.73 162.36,-78.05 151.55,-73.38 139.50,-67.78 127.46,-62.19 114.46,-55.66 101.47,-49.14 87.99,-42.48 74.50,-35.82 63.76,-30.18 53.02,-24.54 43.79,-19.29 34.55,-14.05 27.05,-9.77 19.55,-5.49 14.62,-2.69 9.69,0.10 5.52,1.29 1.34,2.49 1.02,2.61 0.70,2.74 0.36,2.78 0.03,2.83 -0.30,2.79 -0.64,2.75 -0.96,2.64 -1.29,2.52 -1.57,2.33 -1.85,2.14 -2.08,1.88 -2.31,1.63 -2.47,1.33 -2.63,1.03 -2.72,0.70 -2.80,0.37 -2.81,0.02 -2.81,-0.31 -2.73,-0.64 -2.66,-0.97 -2.50,-1.28 -2.34,-1.58 -2.12,-1.84 -1.90,-2.10 -1.62,-2.29 -1.34,-2.49 -1.34,-2.49 L -1.34,-2.49 Z"></path></g></svg>