<svg version="1.1" xmlns="http://www.w3.org/2000/svg" viewBox="0 0 439.4712006020741 395.22364845343986" width="1318.4136018062222" height="1185.6709453603196">
  <!-- svg-source:excalidraw -->
  
  <defs>
    <style class="style-fonts">
      @font-face {
        font-family: "Virgil";
        src: url("https://excalidraw.com/Virgil.woff2");
      }
      @font-face {
        font-family: "Cascadia";
        src: url("https://excalidraw.com/Cascadia.woff2");
      }
      @font-face {
        font-family: "Assistant";
        src: url("https://excalidraw.com/Assistant-Regular.woff2");
      }
    </style>
    
  </defs>
  <g stroke-linecap="round" transform="translate(142.90022726280813 90.46242131161503) rotate(0 63 63.5)"><path d="M38.63 4.17 C46.99 -0.27, 59.46 -1.32, 69.43 -0.4 C79.4 0.52, 90.39 4.31, 98.44 9.68 C106.49 15.06, 113.05 23.12, 117.74 31.85 C122.42 40.58, 126.25 52.07, 126.56 62.07 C126.86 72.07, 123.91 82.93, 119.55 91.84 C115.19 100.75, 108.22 109.88, 100.4 115.53 C92.58 121.18, 82.39 124.61, 72.63 125.74 C62.86 126.88, 51.04 125.49, 41.8 122.36 C32.56 119.22, 23.92 113.93, 17.21 106.93 C10.5 99.93, 4.29 89.87, 1.52 80.35 C-1.25 70.82, -1.47 59.33, 0.61 49.78 C2.69 40.23, 6.97 30.71, 14 23.06 C21.04 15.41, 37.51 7.22, 42.81 3.88 C48.11 0.53, 45.65 1.99, 45.81 2.98 M75.65 0.41 C85.13 1.08, 97.03 6.73, 104.67 13.4 C112.31 20.08, 117.93 30.94, 121.49 40.46 C125.05 49.98, 127.03 60.87, 126.03 70.51 C125.02 80.14, 120.93 90.25, 115.44 98.27 C109.96 106.29, 101.55 113.85, 93.11 118.61 C84.67 123.38, 74.61 126.35, 64.82 126.85 C55.02 127.34, 42.86 125.89, 34.32 121.58 C25.78 117.27, 19.32 109.04, 13.58 100.96 C7.84 92.88, 1.42 82.96, -0.12 73.11 C-1.66 63.26, 0.82 51.36, 4.36 41.87 C7.91 32.37, 14.34 22.94, 21.13 16.15 C27.93 9.35, 36.03 3.52, 45.12 1.08 C54.2 -1.36, 70.63 1.36, 75.62 1.48 C80.61 1.61, 75.02 0.66, 75.06 1.84" stroke="none" stroke-width="0" fill="#1e1e1e"></path><path d="M36.59 5.75 C44.83 0.88, 57.84 -1.35, 67.68 -0.68 C77.52 -0.02, 87.38 4.56, 95.62 9.72 C103.87 14.88, 112.2 21.98, 117.14 30.29 C122.08 38.6, 124.84 49.58, 125.25 59.59 C125.66 69.59, 123.46 81.47, 119.59 90.33 C115.73 99.19, 109.71 106.81, 102.06 112.76 C94.41 118.7, 83.23 124.26, 73.71 125.98 C64.2 127.7, 54.37 126.15, 44.98 123.07 C35.59 119.99, 24.35 114.2, 17.38 107.5 C10.42 100.81, 5.88 92.15, 3.18 82.89 C0.48 73.62, -0.48 61.59, 1.16 51.92 C2.81 42.25, 5.86 33.03, 13.06 24.85 C20.26 16.67, 37.57 6.55, 44.36 2.82 C51.14 -0.9, 53.38 1.62, 53.76 2.49 M84.55 3.39 C93.59 5.89, 104.58 13.04, 111.31 20.31 C118.04 27.58, 122.85 37.12, 124.94 47.02 C127.03 56.92, 126.18 70.09, 123.87 79.71 C121.56 89.32, 117.6 97.51, 111.08 104.71 C104.57 111.9, 94.06 119.36, 84.78 122.88 C75.5 126.39, 65.2 126.87, 55.42 125.79 C45.64 124.72, 34.38 121.88, 26.09 116.44 C17.8 111, 9.85 102.09, 5.69 93.18 C1.54 84.27, 0.92 73.01, 1.15 62.96 C1.38 52.92, 2.91 41.65, 7.09 32.92 C11.26 24.19, 18.32 15.88, 26.18 10.59 C34.04 5.29, 44.61 2.08, 54.26 1.15 C63.9 0.22, 79.07 4.22, 84.05 5.03 C89.04 5.83, 84.41 5.26, 84.16 5.97" stroke="#1e1e1e" stroke-width="1" fill="none"></path></g><g stroke-linecap="round" transform="translate(40.90022726280813 321.462421311615) rotate(0 76 25)"><path d="M12.5 0 C57.01 -2.05, 98.65 0.26, 139.5 0 C147.27 -1.37, 150.43 5.94, 152 12.5 C153.97 23.19, 149.33 31.32, 152 37.5 C151.39 47.36, 148.18 46.86, 139.5 50 C106.24 49.36, 76.68 50.66, 12.5 50 C5.48 53.2, -0.16 47.24, 0 37.5 C-2.24 35.36, 1.32 22.92, 0 12.5 C1.07 6.15, 4.44 0.83, 12.5 0" stroke="none" stroke-width="0" fill="#1e1e1e"></path><path d="M12.5 0 C56.58 0.74, 98.34 -0.06, 139.5 0 M12.5 0 C52.79 0.06, 93.23 -0.1, 139.5 0 M139.5 0 C148.66 -0.04, 151.37 2.68, 152 12.5 M139.5 0 C146.33 1.78, 149.78 2.31, 152 12.5 M152 12.5 C153.25 19.8, 151.44 27.13, 152 37.5 M152 12.5 C153.08 20.26, 152.01 28.95, 152 37.5 M152 37.5 C153.65 46.02, 146.64 49.98, 139.5 50 M152 37.5 C149.92 45.75, 145.88 48.44, 139.5 50 M139.5 50 C96.25 49.87, 53.13 47.24, 12.5 50 M139.5 50 C109.42 50.72, 79.6 51.16, 12.5 50 M12.5 50 C6.1 51.06, -0.14 46.89, 0 37.5 M12.5 50 C2.27 50.17, 2.1 47.71, 0 37.5 M0 37.5 C0.81 28.88, -0.09 17.23, 0 12.5 M0 37.5 C0.59 27.7, 0.17 20.22, 0 12.5 M0 12.5 C0.94 4.08, 4.42 0.67, 12.5 0 M0 12.5 C0.33 4.01, 6.41 0.97, 12.5 0" stroke="#1e1e1e" stroke-width="1" fill="none"></path></g><g stroke-linecap="round" transform="translate(196.90022726280813 234.46242131161503) rotate(59.65675111576045 76 25)"><path d="M12.5 0 C39.39 2.83, 64.75 0.99, 139.5 0 C145.09 -0.73, 153.15 6.61, 152 12.5 C153.92 21.96, 154.03 29.69, 152 37.5 C152.37 47.76, 149.29 50.07, 139.5 50 C88.11 53.04, 35.97 49.18, 12.5 50 C1.23 46.7, 2.34 43.21, 0 37.5 C-3.17 33.74, -3.11 28.03, 0 12.5 C2.23 5.21, 0.57 -2.85, 12.5 0" stroke="none" stroke-width="0" fill="#1e1e1e"></path><path d="M12.5 0 C61.03 -0.19, 108.67 0.88, 139.5 0 M12.5 0 C58.29 0.45, 103.96 1.21, 139.5 0 M139.5 0 C146.49 -0.5, 152.69 4.57, 152 12.5 M139.5 0 C145.57 0.82, 153.11 4.57, 152 12.5 M152 12.5 C153.31 18.59, 153.09 26.45, 152 37.5 M152 12.5 C152.73 20.52, 151.49 28.39, 152 37.5 M152 37.5 C151.82 47.09, 149.14 48.56, 139.5 50 M152 37.5 C153.27 44.39, 148.45 49.01, 139.5 50 M139.5 50 C110.48 48.51, 78.63 47.38, 12.5 50 M139.5 50 C113.51 49.05, 84.87 50.32, 12.5 50 M12.5 50 C5.62 51.82, -1.85 47, 0 37.5 M12.5 50 C2.63 49.08, -1.44 47.25, 0 37.5 M0 37.5 C0.91 31.58, -1.12 28.59, 0 12.5 M0 37.5 C-0.61 28.89, -0.9 20.92, 0 12.5 M0 12.5 C0.17 4.94, 5.32 -0.55, 12.5 0 M0 12.5 C-1.03 6.2, 3.7 -0.39, 12.5 0" stroke="#1e1e1e" stroke-width="1" fill="none"></path></g><g stroke-linecap="round" transform="translate(53.70352885092211 246.49608893339158) rotate(119.4758890032457 87.52549497349048 25)"><path d="M12.5 0 C42.71 2.22, 77.16 -1.65, 162.55 0 C171.52 -1.85, 175.49 6.18, 175.05 12.5 C177.17 21.23, 173.34 25.28, 175.05 37.5 C174.53 47.96, 172.2 46.45, 162.55 50 C112.38 47.79, 53.7 51.67, 12.5 50 C5.51 51.12, -2.68 46.88, 0 37.5 C1.46 32.07, -2.33 19.86, 0 12.5 C2.36 0.79, 5.19 -2.7, 12.5 0" stroke="none" stroke-width="0" fill="#1e1e1e"></path><path d="M12.5 0 C42.66 0.85, 75.08 0.5, 162.55 0 M12.5 0 C53.57 -0.3, 93.23 0.08, 162.55 0 M162.55 0 C170.23 -1.83, 173.21 5.29, 175.05 12.5 M162.55 0 C173.17 0.95, 177.02 2.65, 175.05 12.5 M175.05 12.5 C174.8 20.31, 173.28 31.31, 175.05 37.5 M175.05 12.5 C174.28 19.83, 174.63 28.46, 175.05 37.5 M175.05 37.5 C173.43 47.59, 171.57 48.17, 162.55 50 M175.05 37.5 C177.01 46.76, 172.01 50.96, 162.55 50 M162.55 50 C110.43 48.48, 59.45 49.45, 12.5 50 M162.55 50 C128.78 50.05, 96.61 50.28, 12.5 50 M12.5 50 C2.99 49.14, -0.57 47, 0 37.5 M12.5 50 C5.13 49.24, -1.55 47.18, 0 37.5 M0 37.5 C-1.9 29.26, -0.58 19.31, 0 12.5 M0 37.5 C-0.04 30.29, 0.05 21.93, 0 12.5 M0 12.5 C-1.85 4.43, 6.01 1.06, 12.5 0 M0 12.5 C2.21 5.52, 5.84 -0.95, 12.5 0" stroke="#1e1e1e" stroke-width="1" fill="none"></path></g><g stroke-linecap="round" transform="translate(287.90022726280813 323.462421311615) rotate(0 3.5 30)"><path d="M1.75 0 C3.13 0.34, 3.71 -0.08, 5.25 0 C5.3 -1.2, 6.53 -2.01, 7 1.75 C8.28 11.61, 8.82 24.99, 7 58.25 C8.98 57.57, 8.66 60.28, 5.25 60 C3.76 59.93, 2.82 60.45, 1.75 60 C-0.18 60.84, -1.39 57.38, 0 58.25 C1.62 46.18, -2.23 29.21, 0 1.75 C2.24 -1.02, -0.18 0.26, 1.75 0" stroke="none" stroke-width="0" fill="#1e1e1e"></path><path d="M1.75 0 C2.62 -0.06, 3.33 0.07, 5.25 0 M1.75 0 C2.93 0.01, 4.12 0.01, 5.25 0 M5.25 0 C5.84 -0.32, 6.42 -0.34, 7 1.75 M5.25 0 C5.96 0.01, 7.09 0.41, 7 1.75 M7 1.75 C6.95 13.35, 7.47 26.93, 7 58.25 M7 1.75 C7.07 23.84, 6.85 46.7, 7 58.25 M7 58.25 C6.8 60.32, 6.76 60.95, 5.25 60 M7 58.25 C6.36 59.17, 6.1 60.62, 5.25 60 M5.25 60 C4.17 59.9, 3.09 59.93, 1.75 60 M5.25 60 C4.05 60.08, 2.95 59.94, 1.75 60 M1.75 60 C-0.22 59.65, -0.25 58.57, 0 58.25 M1.75 60 C-0.2 60.78, 0.39 60.38, 0 58.25 M0 58.25 C-0.04 44.08, 0.73 31.58, 0 1.75 M0 58.25 C-0.32 42.56, -0.03 26.16, 0 1.75 M0 1.75 C0.88 0.14, 0.59 0.2, 1.75 0 M0 1.75 C-0.99 1.39, 0.4 0.92, 1.75 0" stroke="#1e1e1e" stroke-width="1" fill="none"></path></g><g stroke-opacity="0.9" fill-opacity="0.9" stroke-linecap="round" transform="translate(337.40022726280813 305.462421311615) rotate(331.0490047925332 3.5 30)"><path d="M1.75 0 C2.84 -0.33, 3.85 0.2, 5.25 0 C8.03 0.93, 4.93 1.9, 7 1.75 C6.16 18.68, 5.87 37.52, 7 58.25 C5.9 59.91, 4.64 58.81, 5.25 60 C4.44 59.87, 3.49 59.82, 1.75 60 C1.48 61.76, 0.18 58.81, 0 58.25 C0.02 44.39, 2.61 25.33, 0 1.75 C0.71 -0.45, 2.75 1.08, 1.75 0" stroke="none" stroke-width="0" fill="#1e1e1e"></path><path d="M1.75 0 C3.15 -0.09, 4.19 0.03, 5.25 0 M1.75 0 C2.59 0.01, 3.41 0.06, 5.25 0 M5.25 0 C7.31 0.2, 6.58 0.26, 7 1.75 M5.25 0 C5.4 0.39, 8 0.85, 7 1.75 M7 1.75 C6.87 20.57, 6.22 40.34, 7 58.25 M7 1.75 C6.72 22.09, 7.33 42.04, 7 58.25 M7 58.25 C7.28 60.16, 7.17 59, 5.25 60 M7 58.25 C7.92 59.87, 5.81 59.45, 5.25 60 M5.25 60 C4.38 59.95, 3.81 60.07, 1.75 60 M5.25 60 C3.89 59.94, 2.55 60, 1.75 60 M1.75 60 C0.17 59.13, 0.28 59.67, 0 58.25 M1.75 60 C0.52 59.08, 1.08 59.97, 0 58.25 M0 58.25 C-0.9 41.27, 0.51 25.08, 0 1.75 M0 58.25 C-0.42 43.05, -0.1 27.67, 0 1.75 M0 1.75 C-0.87 -0.33, 0.89 -0.2, 1.75 0 M0 1.75 C-1.12 0.89, 1.35 0.19, 1.75 0" stroke="#1e1e1e" stroke-width="1" fill="none"></path></g><g stroke-linecap="round" transform="translate(337.73257742511646 348.8521732401168) rotate(44.27477570094073 2.6676498376916697 20.110248071498177)"><path d="M1.33 0 C2.01 -0.27, 2.88 -0.12, 4 0 C7.15 2.38, 6.86 -1.98, 5.34 1.33 C2.52 9.21, 4.04 21.01, 5.34 38.89 C7.8 40.01, 7.18 41.66, 4 40.22 C2.8 40.16, 2.06 40.27, 1.33 40.22 C2.54 39.47, -2.11 42.33, 0 38.89 C-0.67 30.88, 2.01 21.42, 0 1.33 C2.26 1, -0.7 -1.4, 1.33 0" stroke="none" stroke-width="0" fill="#1e1e1e"></path><path d="M1.33 0 C1.84 0.03, 2.45 0.08, 4 0 M1.33 0 C2.33 0.03, 3.36 -0.04, 4 0 M4 0 C4.21 0.73, 5.31 0.76, 5.34 1.33 M4 0 C5.07 -0.17, 6.21 0.16, 5.34 1.33 M5.34 1.33 C5.06 12.14, 5.12 21.28, 5.34 38.89 M5.34 1.33 C5.17 11.12, 5.41 21.13, 5.34 38.89 M5.34 38.89 C5.93 39.77, 5.54 40.67, 4 40.22 M5.34 38.89 C5.01 39.77, 4.83 39.13, 4 40.22 M4 40.22 C3.44 40.14, 2.8 40.3, 1.33 40.22 M4 40.22 C2.94 40.2, 1.93 40.19, 1.33 40.22 M1.33 40.22 C-0.21 39.63, -0.43 38.89, 0 38.89 M1.33 40.22 C0.62 39.8, 0.14 40.59, 0 38.89 M0 38.89 C0.25 28.55, 0.71 19.19, 0 1.33 M0 38.89 C0.04 30.3, 0.24 22.39, 0 1.33 M0 1.33 C0.92 0.33, 1.43 -0.18, 1.33 0 M0 1.33 C-1.03 -0.32, 1.5 0.9, 1.33 0" stroke="#1e1e1e" stroke-width="1" fill="none"></path></g><g stroke-linecap="round" transform="translate(173.90022726280813 115.46242131161503) rotate(0 32 35)"><path d="M34.29 0.68 C40.39 0.77, 48.07 4.1, 52.7 8.21 C57.32 12.32, 60.48 18.93, 62.02 25.34 C63.55 31.75, 64.14 40.02, 61.91 46.67 C59.68 53.31, 53.83 61.2, 48.62 65.22 C43.4 69.24, 36.61 71.4, 30.62 70.81 C24.62 70.22, 17.63 66.05, 12.64 61.66 C7.66 57.26, 2.62 50.99, 0.72 44.42 C-1.17 37.86, -1.17 28.78, 1.27 22.28 C3.7 15.79, 8.42 9.03, 15.32 5.46 C22.22 1.89, 36.97 0.92, 42.66 0.88 C48.35 0.85, 49.88 4.61, 49.47 5.26 M24.08 1.61 C29.87 -0.17, 38.59 -0.37, 44.7 2.28 C50.81 4.94, 57.49 11.64, 60.73 17.54 C63.96 23.43, 64.66 30.88, 64.1 37.66 C63.54 44.43, 61.71 53.18, 57.38 58.19 C53.06 63.21, 44.27 66.01, 38.16 67.74 C32.04 69.48, 26.18 70.88, 20.7 68.59 C15.21 66.31, 8.54 60.16, 5.26 54.04 C1.98 47.91, 0.61 38.7, 1 31.83 C1.38 24.96, 3.52 17.86, 7.56 12.82 C11.6 7.79, 22.12 3.57, 25.25 1.62 C28.37 -0.33, 26.17 0.71, 26.33 1.13" stroke="none" stroke-width="0" fill="#ffffff"></path><path d="M34.26 0.2 C40.16 0.12, 47.5 3.81, 52.23 8.05 C56.96 12.3, 61.02 18.92, 62.64 25.67 C64.26 32.41, 64.26 41.98, 61.96 48.54 C59.66 55.1, 54.21 61.34, 48.86 65.02 C43.52 68.69, 36.13 71.17, 29.89 70.61 C23.64 70.04, 16.28 66.2, 11.41 61.64 C6.55 57.08, 2.1 49.96, 0.71 43.26 C-0.69 36.57, 0.83 27.74, 3.03 21.47 C5.22 15.21, 8.64 9.12, 13.88 5.68 C19.12 2.24, 30.72 1.65, 34.46 0.83 C38.19 0.02, 36.27 0.35, 36.3 0.8 M37.63 1.06 C43.35 1.58, 49.25 6.12, 53.46 10.73 C57.68 15.34, 61.76 21.98, 62.92 28.7 C64.07 35.43, 63.2 44.96, 60.39 51.08 C57.58 57.2, 51.59 62.51, 46.06 65.44 C40.53 68.36, 33.38 69.57, 27.21 68.65 C21.04 67.72, 13.65 64.51, 9.05 59.87 C4.44 55.23, 0.61 47.45, -0.43 40.79 C-1.46 34.14, 0.04 26.15, 2.83 19.96 C5.62 13.77, 10.75 6.73, 16.32 3.67 C21.88 0.61, 32.71 2.15, 36.21 1.59 C39.72 1.03, 37.29 0.11, 37.34 0.31" stroke="transparent" stroke-width="1" fill="none"></path></g><g stroke-linecap="round" transform="translate(139.22106016887176 252.2144847370524) rotate(54.21102654081685 53.17916709393637 2.7479365745625444)"><path d="M1.37 0 C26.35 1.84, 48.02 0.94, 104.98 0 C108.25 1.7, 107.43 2.11, 106.36 1.37 C106.21 1.91, 106.69 2.71, 106.36 4.12 C107.67 5.57, 106.13 5.41, 104.98 5.5 C69.13 7.8, 33.51 5.84, 1.37 5.5 C-1.51 6.1, -1.77 3.78, 0 4.12 C-0.36 3.14, -0.01 2.32, 0 1.37 C2.1 1.54, -1.41 2.12, 1.37 0" stroke="none" stroke-width="0" fill="#1e1e1e"></path><path d="M1.37 0 C34 -0.22, 65.51 -0.46, 104.98 0 M1.37 0 C35.63 0.33, 70.31 0.36, 104.98 0 M104.98 0 C105.85 0.04, 106.32 0.64, 106.36 1.37 M104.98 0 C106.65 0.87, 105.25 0.28, 106.36 1.37 M106.36 1.37 C106.38 2.04, 106.29 2.46, 106.36 4.12 M106.36 1.37 C106.33 2.23, 106.32 2.96, 106.36 4.12 M106.36 4.12 C106 5.74, 105.49 6.25, 104.98 5.5 M106.36 4.12 C106.23 3.94, 106.26 4.56, 104.98 5.5 M104.98 5.5 C77.29 4.26, 50.72 5.05, 1.37 5.5 M104.98 5.5 C66.71 4.88, 27.58 5.46, 1.37 5.5 M1.37 5.5 C1.02 6.25, 0 5.05, 0 4.12 M1.37 5.5 C0.8 6.17, -0.79 4.23, 0 4.12 M0 4.12 C-0.1 3.25, 0.12 2.64, 0 1.37 M0 4.12 C0.05 3.38, 0.05 2.77, 0 1.37 M0 1.37 C0.33 0.75, 0.64 0.75, 1.37 0 M0 1.37 C0.79 -0.22, -0.61 0, 1.37 0" stroke="#1e1e1e" stroke-width="1" fill="none"></path></g><g stroke-linecap="round" transform="translate(167.72106016887165 255.71448473705257) rotate(129.28940686250016 53.17916709393637 2.7479365745625444)"><path d="M1.37 0 C37.41 -0.3, 71.64 2.6, 104.98 0 C105.43 1.09, 104.79 -1.5, 106.36 1.37 C106.44 2.18, 106.38 2.74, 106.36 4.12 C108.03 6.81, 107.89 3.29, 104.98 5.5 C70.7 4.14, 34.8 5.64, 1.37 5.5 C-1.05 7.11, 1.99 3.15, 0 4.12 C0.29 3.41, 0.31 2.85, 0 1.37 C-0.78 -0.27, -1.48 1.83, 1.37 0" stroke="none" stroke-width="0" fill="#1e1e1e"></path><path d="M1.37 0 C29.42 0.2, 57.45 0.26, 104.98 0 M1.37 0 C37.69 0.82, 73.51 0.7, 104.98 0 M104.98 0 C106.26 0.88, 106.97 0.08, 106.36 1.37 M104.98 0 C106.61 -0.63, 107.05 0.35, 106.36 1.37 M106.36 1.37 C106.32 2.02, 106.44 2.85, 106.36 4.12 M106.36 1.37 C106.3 2.4, 106.43 3.53, 106.36 4.12 M106.36 4.12 C105.5 5.07, 105.85 5.03, 104.98 5.5 M106.36 4.12 C105.52 5.95, 105.83 5.48, 104.98 5.5 M104.98 5.5 C64.62 6.15, 25.49 5.89, 1.37 5.5 M104.98 5.5 C80.41 5.07, 55.58 5.81, 1.37 5.5 M1.37 5.5 C1.27 5.52, 0.54 5.04, 0 4.12 M1.37 5.5 C1.05 5.36, -0.19 4.8, 0 4.12 M0 4.12 C0.05 2.98, -0.12 2.01, 0 1.37 M0 4.12 C-0.02 3.41, -0.05 2.72, 0 1.37 M0 1.37 C0.09 1.16, 0.81 -0.88, 1.37 0 M0 1.37 C0.11 -0.12, 0.9 -0.94, 1.37 0" stroke="#1e1e1e" stroke-width="1" fill="none"></path></g><g stroke-linecap="round"><g transform="translate(94.90022726280813 11.462421311615032) rotate(0 125 185.5)"><path d="M-0.87 -0.27 C54.68 34.48, 335.15 172.91, 332.23 209.43 C329.31 245.96, -1.56 211.41, -18.39 218.88 C-35.22 226.35, 234.6 248.71, 231.28 254.26 C227.95 259.82, -51.02 247.56, -38.34 252.2 C-25.67 256.85, 311.27 276.01, 307.35 282.13 C303.43 288.26, -26.63 285.07, -61.88 288.96 C-97.13 292.84, 95.88 300.56, 95.85 305.44 C95.82 310.33, -65.8 315.3, -62.06 318.28 C-58.32 321.25, 121.61 320.15, 118.29 323.27 C114.97 326.39, -87.25 335.5, -81.99 336.99 C-76.72 338.47, 148.88 329.81, 149.9 332.18 C150.91 334.55, -73.71 348.76, -75.89 351.21 C-78.07 353.65, 112.07 356.49, 136.81 346.85 C161.54 337.2, 81.41 289.45, 72.52 293.34 C63.63 297.23, 86.33 368.01, 83.48 370.2 C80.64 372.39, 61.79 307.95, 55.45 306.47 C49.12 304.98, 51.21 359.93, 45.48 361.28 C39.74 362.64, 28.14 316.15, 21.04 314.57 C13.94 312.99, 8.72 353.19, 2.87 351.81 C-2.99 350.44, -7.27 307.98, -14.1 306.31 C-20.94 304.64, -33.47 340.77, -38.15 341.8 C-42.84 342.82, -37.56 329.36, -42.22 312.45 C-46.87 295.54, -76.45 247.1, -66.09 240.33 C-55.73 233.56, -1.95 271.1, 19.95 271.81 C41.84 272.52, 59.45 257.78, 65.28 244.6 C71.12 231.42, 51.03 197.99, 54.96 192.73 C58.9 187.48, 80.99 211.28, 88.88 213.07 C96.77 214.85, 96.54 206.92, 102.32 203.43 C108.09 199.93, 116.56 189.54, 123.54 192.1 C130.52 194.66, 139.05 211.72, 144.2 218.8 C149.34 225.87, 151.11 226.83, 154.43 234.53 C157.75 242.24, 160.05 255.33, 164.11 265.03 C168.17 274.72, 175.83 297.02, 178.79 292.71 C181.76 288.41, 183.38 254.94, 181.88 239.2 C180.39 223.45, 172.89 209.81, 169.82 198.25 C166.75 186.7, 164.75 174.7, 163.45 169.87 M0.88 -1.46 C56.91 33.36, 337.91 174.26, 334.54 210.67 C331.17 247.08, -2.22 209.52, -19.36 216.99 C-36.51 224.47, 235.02 249.55, 231.67 255.51 C228.32 261.46, -52.26 247.9, -39.47 252.7 C-26.68 257.5, 312.56 278.49, 308.42 284.3 C304.28 290.11, -28.7 284.17, -64.32 287.59 C-99.93 291, 94.65 299.38, 94.74 304.81 C94.84 310.24, -67.75 317.15, -63.76 320.17 C-59.77 323.2, 122.19 320.08, 118.68 322.96 C115.18 325.83, -90.27 335.87, -84.79 337.44 C-79.31 339.01, 150.55 329.68, 151.56 332.38 C152.57 335.08, -76.67 351.26, -78.74 353.63 C-80.81 355.99, 113.92 356.77, 139.14 346.57 C164.36 336.38, 81.66 288.36, 72.59 292.43 C63.53 296.51, 87.79 368.53, 84.77 371.04 C81.74 373.54, 60.64 309, 54.44 307.46 C48.24 305.92, 53.28 360.52, 47.57 361.8 C41.87 363.08, 27.58 316.49, 20.19 315.12 C12.81 313.76, 9.1 354.71, 3.28 353.6 C-2.54 352.48, -7.84 310.64, -14.72 308.43 C-21.59 306.22, -33.34 339.77, -37.95 340.34 C-42.55 340.9, -37.84 328.6, -42.35 311.82 C-46.86 295.03, -75.68 246.25, -65.02 239.62 C-54.37 232.98, -0.36 271.23, 21.57 272 C43.51 272.77, 60.87 257.54, 66.59 244.23 C72.3 230.93, 52.03 197.53, 55.88 192.15 C59.73 186.78, 81.99 209.91, 89.69 212 C97.38 214.09, 96.7 207.71, 102.06 204.7 C107.42 201.68, 114.77 191.3, 121.84 193.93 C128.9 196.57, 139 213.98, 144.45 220.5 C149.9 227.03, 150.99 225.64, 154.54 233.06 C158.09 240.49, 161.45 255.47, 165.76 265.06 C170.07 274.65, 177.55 295, 180.4 290.6 C183.25 286.19, 184.67 253.76, 182.87 238.62 C181.08 223.49, 173.11 211.38, 169.63 199.78 C166.16 188.18, 163.26 174.21, 162.02 169.04" stroke="#ffffff" stroke-width="1" fill="none"></path></g></g><mask></mask></svg>