<svg version="1.1" xmlns="http://www.w3.org/2000/svg" viewBox="0 0 589.9400456199071 378.7247230443964" width="1769.8201368597213" height="1136.1741691331893">
  <!-- svg-source:excalidraw -->
  
  <defs>
    <style class="style-fonts">
      @font-face {
        font-family: "Virgil";
        src: url("https://excalidraw.com/Virgil.woff2");
      }
      @font-face {
        font-family: "Cascadia";
        src: url("https://excalidraw.com/Cascadia.woff2");
      }
      @font-face {
        font-family: "Assistant";
        src: url("https://excalidraw.com/Assistant-Regular.woff2");
      }
    </style>
    
  </defs>
  <g stroke-linecap="round" transform="translate(10 144.54158405541324) rotate(0 68 72.5)"><path d="M96.32 6.98 C105.21 9.81, 112.8 16.88, 119.12 24.65 C125.44 32.42, 131.78 43.21, 134.24 53.59 C136.69 63.96, 135.93 76.56, 133.85 86.91 C131.77 97.26, 127.3 107.5, 121.75 115.66 C116.2 123.82, 109.11 130.89, 100.55 135.85 C91.99 140.81, 80.28 144.91, 70.41 145.43 C60.54 145.95, 50.21 143.25, 41.33 138.96 C32.46 134.67, 23.78 127.66, 17.17 119.7 C10.56 111.75, 4.41 101.43, 1.67 91.23 C-1.07 81.02, -1.16 68.93, 0.72 58.46 C2.6 47.98, 6.92 36.69, 12.95 28.36 C18.98 20.04, 28.28 13.29, 36.9 8.52 C45.52 3.75, 53.96 -0.48, 64.69 -0.26 C75.41 -0.05, 94.73 7.55, 101.27 9.8 C107.81 12.04, 104.71 12.46, 103.93 13.21 M88.21 2.37 C97.38 4.47, 108.48 13.48, 115.43 20.55 C122.38 27.62, 126.41 35.21, 129.92 44.8 C133.43 54.39, 137.09 67.26, 136.5 78.09 C135.91 88.92, 131.29 100.52, 126.37 109.77 C121.45 119.01, 115.14 127.76, 106.97 133.55 C98.81 139.34, 87.18 143.13, 77.39 144.52 C67.59 145.9, 57.41 145.1, 48.23 141.85 C39.04 138.6, 29.48 132.24, 22.27 125.02 C15.05 117.8, 8.64 108.2, 4.96 98.53 C1.27 88.86, -0.55 77.44, 0.13 67.02 C0.81 56.6, 4.07 45.11, 9.04 36.01 C14.01 26.92, 21.76 18.08, 29.94 12.45 C38.12 6.82, 48.19 3.97, 58.1 2.26 C68.01 0.55, 84.32 1.84, 89.37 2.2 C94.43 2.56, 88.93 3.22, 88.44 4.41" stroke="none" stroke-width="0" fill="#ffec99"></path><path d="M99.91 7.22 C108.84 10.88, 116.52 20.76, 122.37 29.17 C128.22 37.58, 133.18 47.41, 135 57.68 C136.83 67.95, 135.92 80.44, 133.3 90.78 C130.68 101.13, 125.39 111.86, 119.27 119.73 C113.15 127.61, 105.59 133.93, 96.58 138.05 C87.58 142.18, 75.04 144.56, 65.24 144.47 C55.44 144.39, 46.44 142.34, 37.79 137.53 C29.15 132.71, 19.38 124.11, 13.36 115.58 C7.35 107.05, 3.69 96.63, 1.7 86.36 C-0.29 76.08, -1.09 64.09, 1.43 53.92 C3.95 43.75, 10.23 33.12, 16.8 25.33 C23.37 17.55, 32.12 11.37, 40.85 7.21 C49.58 3.05, 58.67 -0.29, 69.19 0.39 C79.71 1.08, 97.73 9.16, 103.96 11.31 C110.19 13.47, 107.37 12.57, 106.56 13.32 M84.78 3.38 C93.75 4.88, 103.64 11.52, 111.36 18.12 C119.09 24.72, 127.07 33.58, 131.15 42.97 C135.22 52.35, 136.15 63.99, 135.8 74.43 C135.44 84.87, 133.57 95.97, 129.01 105.58 C124.45 115.2, 116.59 125.82, 108.43 132.11 C100.27 138.39, 89.6 141.52, 80.06 143.29 C70.53 145.06, 60.71 145.51, 51.21 142.74 C41.72 139.98, 30.9 133.71, 23.1 126.71 C15.31 119.72, 8.11 110.39, 4.42 100.78 C0.74 91.17, 0.26 79.52, 0.98 69.04 C1.71 58.56, 4.19 47.14, 8.75 37.89 C13.31 28.64, 20.46 19.43, 28.35 13.54 C36.24 7.65, 46.23 4.2, 56.08 2.57 C65.93 0.95, 82.64 3.45, 87.46 3.78 C92.27 4.11, 85.73 3.74, 84.95 4.58" stroke="#1e1e1e" stroke-width="1" fill="none"></path></g><g stroke-linecap="round" transform="translate(53 185.54158405541324) rotate(0 21 27)"><path d="M18.44 -0.72 C22.58 -1.69, 29.69 0.92, 33.56 4.51 C37.42 8.09, 40.5 15.09, 41.63 20.8 C42.75 26.51, 42.44 33.56, 40.32 38.76 C38.2 43.97, 33.1 49.64, 28.91 52.03 C24.72 54.42, 19.27 54.78, 15.17 53.11 C11.06 51.44, 6.65 46.81, 4.27 42.03 C1.89 37.25, 0.63 30.27, 0.87 24.46 C1.12 18.64, 2.34 11.26, 5.75 7.14 C9.15 3.02, 18.79 0.79, 21.31 -0.24 C23.84 -1.28, 20.91 0.46, 20.91 0.93 M19.88 -0.45 C24.32 -1.07, 30.51 0.98, 34.04 4.3 C37.58 7.63, 40.13 13.98, 41.1 19.5 C42.06 25.02, 41.58 32.07, 39.83 37.42 C38.07 42.76, 34.77 48.89, 30.57 51.58 C26.37 54.27, 19.11 55.39, 14.63 53.55 C10.15 51.72, 5.89 45.57, 3.69 40.56 C1.49 35.55, 0.94 28.86, 1.43 23.48 C1.93 18.11, 3.85 12.23, 6.68 8.3 C9.51 4.37, 16.17 1.01, 18.39 -0.08 C20.6 -1.17, 19.69 1.22, 19.97 1.73" stroke="none" stroke-width="0" fill="#ffec99"></path><path d="M11.24 2.79 C14.92 -0.08, 21.47 -0.32, 25.94 0.97 C30.4 2.25, 35.48 5.94, 38.02 10.49 C40.55 15.04, 41.4 22.47, 41.14 28.26 C40.89 34.06, 39.2 40.94, 36.49 45.27 C33.79 49.6, 29.51 53.59, 24.93 54.25 C20.35 54.92, 12.93 52.4, 9.01 49.26 C5.09 46.12, 2.75 40.65, 1.43 35.4 C0.12 30.16, -1.08 23.69, 1.11 17.8 C3.31 11.92, 11.64 2.88, 14.62 0.09 C17.6 -2.7, 18.94 0.58, 19 1.06 M23.33 -0.69 C27.43 -0.42, 32.78 4.03, 36.03 8.4 C39.28 12.78, 42.52 19.84, 42.83 25.58 C43.13 31.31, 40.85 38.27, 37.84 42.82 C34.83 47.36, 29.47 51.35, 24.75 52.83 C20.02 54.3, 13.57 54.38, 9.48 51.66 C5.39 48.95, 1.63 41.98, 0.22 36.52 C-1.19 31.06, -0.53 24.61, 1.01 18.9 C2.56 13.18, 5.4 5.27, 9.47 2.25 C13.54 -0.77, 22.82 1.23, 25.42 0.77 C28.02 0.31, 25.34 -1.1, 25.08 -0.51" stroke="#1e1e1e" stroke-width="1" fill="none"></path></g><g stroke-linecap="round"><g transform="translate(77 142.54158405541324) rotate(0 25 -55.5)"><path d="M-0.34 1.07 C8.06 -17.55, 41.97 -93.22, 50.25 -111.91 M1.68 0.59 C9.97 -17.89, 41.68 -92.45, 49.43 -110.85" stroke="#1e1e1e" stroke-width="1" fill="none"></path></g></g><mask></mask><g stroke-linecap="round"><g transform="translate(128 31.54158405541324) rotate(0 60.5 150.5)"><path d="M-0.41 1.14 C19.89 51.41, 100.82 251.95, 121.05 301.92 M1.58 0.69 C21.79 50.61, 100.35 250.01, 120.12 300.29" stroke="#1e1e1e" stroke-width="1" fill="none"></path></g></g><mask></mask><g stroke-linecap="round"><g transform="translate(130 113.54158405541324) rotate(0 -7.5 20)"><path d="M-0.58 -0.54 C-3.25 5.99, -13 33.5, -15.34 40.1 M1.32 1.8 C-1.6 8.46, -13.71 35.34, -16.47 41.7" stroke="#1e1e1e" stroke-width="1" fill="none"></path></g></g><mask></mask><g stroke-linecap="round"><g transform="translate(130 114.54158405541324) rotate(0 38.5 112.5)"><path d="M-0.3 0.94 C12.76 38.29, 64.79 186.75, 77.82 224.28 M1.74 0.39 C14.77 37.86, 64.66 188.11, 77.31 225.44" stroke="#1e1e1e" stroke-width="1" fill="none"></path></g></g><mask></mask><g stroke-linecap="round"><g transform="translate(206 339.54158405541324) rotate(0 19.5 -3)"><path d="M-0.06 0.34 C6.49 -0.55, 32.98 -4.78, 39.49 -5.88 M-0.76 0.04 C5.75 -0.98, 32.74 -5.81, 39.31 -6.79" stroke="#1e1e1e" stroke-width="1" fill="none"></path></g></g><mask></mask><g stroke-linecap="round"><g transform="translate(71 288.54158405541324) rotate(0 1.5 8)"><path d="M-0.2 -0.29 C0.25 2.41, 2.24 13.31, 2.7 16.02 M0.7 0.75 C1.33 3.56, 3.29 14.1, 3.77 16.72" stroke="#1e1e1e" stroke-width="1" fill="none"></path></g></g><mask></mask><g stroke-linecap="round"><g transform="translate(102 288.54158405541324) rotate(0 -22 33.5)"><path d="M-0.59 -0.42 C-1.03 -0.69, -2.24 -5.11, -2.94 -2.67 C-3.64 -0.24, -0.6 10.82, -4.79 14.17 C-8.97 17.51, -17.76 15.42, -28.05 17.38 C-38.34 19.35, -57.29 19.05, -66.54 25.96 C-75.8 32.86, -85.66 51.61, -83.58 58.82 C-81.49 66.03, -65.14 70.29, -54.03 69.23 C-42.92 68.17, -28.62 56.47, -16.93 52.45 C-5.25 48.44, 7.1 44.72, 16.08 45.15 C25.06 45.57, 33.31 58.53, 36.97 55 C40.63 51.47, 44.74 30.82, 38.03 23.96 C31.33 17.1, 3.53 15.44, -3.27 13.85 M1.31 -1.69 C0.74 -1.72, -2.72 -4.28, -3.85 -1.49 C-4.97 1.3, -1.35 11.77, -5.44 15.05 C-9.52 18.32, -17.97 16.8, -28.36 18.16 C-38.75 19.52, -58.75 16.61, -67.77 23.19 C-76.79 29.78, -84.86 50.21, -82.47 57.68 C-80.07 65.15, -64.25 68.98, -53.4 68.01 C-42.56 67.03, -28.8 55.77, -17.4 51.83 C-6 47.89, 5.79 43.91, 14.98 44.37 C24.16 44.82, 33.91 57.79, 37.72 54.55 C41.53 51.31, 44.85 31.27, 37.85 24.93 C30.84 18.58, 2.94 18.43, -4.31 16.49" stroke="#1e1e1e" stroke-width="1" fill="none"></path></g></g><mask></mask><g stroke-linecap="round"><g transform="translate(209 229.54158405541324) rotate(0 185 -40)" fill-rule="evenodd"><path d="M1.22 -0.04 C5.04 -34.62, 7.24 -201.93, 23.05 -207.67 C38.86 -213.42, 78.69 -32.82, 96.08 -34.48 C113.48 -36.14, 111.85 -232.23, 127.41 -217.63 C142.97 -203.03, 166.29 -0.75, 189.43 53.11 C212.58 106.96, 244.78 106.1, 266.28 105.48 C287.78 104.87, 300.83 50.07, 318.44 49.41 C336.05 48.75, 371.65 97.12, 371.93 101.52 C372.22 105.92, 333.16 73.26, 320.15 75.79 C307.13 78.32, 301.35 108.26, 293.84 116.68 C286.32 125.09, 281.81 123.85, 275.03 126.28 C268.25 128.71, 263.15 129.03, 253.15 131.27 C243.14 133.5, 224.81 140.78, 215.01 139.7 C205.21 138.63, 202.77 136.66, 194.33 124.83 C185.89 113.01, 171.98 95.71, 164.35 68.76 C156.72 41.81, 153.88 -38.51, 148.53 -36.85 C143.19 -35.18, 145.81 70.53, 132.27 78.73 C118.73 86.93, 84.98 14.36, 67.31 12.34 C49.64 10.31, 37.63 68.34, 26.23 66.57 C14.83 64.8, 3.58 13.13, -1.1 1.72" stroke="none" stroke-width="0" fill="#ffec99" fill-rule="evenodd"></path><path d="M-0.73 -0.67 C2.78 -35.44, 6.02 -203.97, 21.86 -209.66 C37.7 -215.35, 76.34 -33.62, 94.31 -34.81 C112.29 -36.01, 113.52 -231.51, 129.71 -216.83 C145.9 -202.15, 168.49 -0.62, 191.44 53.27 C214.38 107.16, 246.23 107.24, 267.4 106.53 C288.57 105.82, 301.55 49.93, 318.47 49.01 C335.38 48.09, 368.88 96.1, 368.89 100.99 C368.9 105.88, 331.29 75.86, 318.52 78.34 C305.74 80.82, 299.66 107.44, 292.24 115.86 C284.81 124.29, 280.7 126.24, 273.99 128.92 C267.28 131.6, 261.49 130.25, 251.99 131.95 C242.49 133.65, 226.4 139.97, 216.97 139.1 C207.54 138.24, 204.4 138.76, 195.38 126.77 C186.36 114.78, 171.08 94.31, 162.84 67.17 C154.6 40.04, 151.43 -38.2, 145.93 -36.05 C140.44 -33.89, 142.68 72.47, 129.86 80.12 C117.05 87.77, 86.07 11.86, 69.05 9.85 C52.04 7.84, 39.36 69.5, 27.79 68.04 C16.22 66.59, 4.36 12.33, -0.37 1.11 M1.08 1.6 C4.45 -33.46, 5.92 -205.68, 21.36 -211.6 C36.8 -217.52, 75.55 -32.73, 93.71 -33.92 C111.87 -35.12, 114.25 -233.39, 130.33 -218.77 C146.41 -204.15, 167.17 -0.29, 190.19 53.8 C213.22 107.89, 246.97 106.26, 268.49 105.76 C290.02 105.26, 302.28 51.65, 319.35 50.8 C336.43 49.95, 371.31 96.26, 370.94 100.65 C370.56 105.04, 330.17 74.16, 317.11 77.13 C304.06 80.11, 299.74 110.21, 292.6 118.48 C285.47 126.74, 281.22 124.03, 274.3 126.72 C267.38 129.42, 260.62 132.61, 251.1 134.63 C241.58 136.66, 226.55 140.22, 217.18 138.86 C207.81 137.49, 203.81 138.48, 194.88 126.46 C185.95 114.43, 171.69 94.11, 163.61 66.71 C155.53 39.31, 152.26 -39.8, 146.41 -37.96 C140.56 -36.11, 141.55 69.78, 128.54 77.8 C115.52 85.81, 85.27 12.24, 68.32 10.14 C51.37 8.03, 38.22 66.89, 26.82 65.19 C15.42 63.48, 4.11 10.79, -0.07 -0.08" stroke="#1e1e1e" stroke-width="1" fill="none"></path></g></g><mask></mask><g stroke-linecap="round"><g transform="translate(79 144.54158405541324) rotate(0 18 4.5)"><path d="M0.1 -0.17 C6.23 1.37, 30.39 7.33, 36.36 8.87 M-0.52 -0.73 C5.61 0.92, 30.11 7.76, 36.12 9.5" stroke="#1971c2" stroke-width="1" fill="none"></path></g></g><mask></mask></svg>