<svg version="1.1" xmlns="http://www.w3.org/2000/svg" viewBox="0 0 526 498" width="1578" height="1494">
  <!-- svg-source:excalidraw -->
  
  <defs>
    <style class="style-fonts">
      @font-face {
        font-family: "Virgil";
        src: url("https://excalidraw.com/Virgil.woff2");
      }
      @font-face {
        font-family: "Cascadia";
        src: url("https://excalidraw.com/Cascadia.woff2");
      }
      @font-face {
        font-family: "Assistant";
        src: url("https://excalidraw.com/Assistant-Regular.woff2");
      }
    </style>
    
  </defs>
  <g stroke-linecap="round" transform="translate(10 10) rotate(0 240 239)"><path d="M301.25 60 C347.68 105.34, 387.55 143.83, 419.75 180 C479.39 240.83, 478.91 239.38, 419.75 300 C377.84 345.5, 328.99 389.17, 301.25 418 C240.34 476.77, 237.94 480.16, 180.75 418 C135.21 373.06, 91.54 326.95, 60.25 300 C1.8 241.88, 3.27 243.28, 60.25 180 C97.27 145.93, 136.92 107.45, 180.75 60 C241.24 -1.41, 239.64 3.44, 301.25 60" stroke="none" stroke-width="0" fill="#b2f2bb"></path><path d="M301.25 60 C330.79 91.5, 360.99 123.97, 419.75 180 M301.25 60 C326.52 84.46, 349.69 109.41, 419.75 180 M419.75 180 C479.16 239.01, 478.9 240.01, 419.75 300 M419.75 180 C481.63 241.82, 477.89 241.73, 419.75 300 M419.75 300 C396.23 324.43, 370.79 351.1, 301.25 418 M419.75 300 C389.68 329.07, 358.23 358.79, 301.25 418 M301.25 418 C242.51 476.39, 239.12 476.59, 180.75 418 M301.25 418 C240.48 478.92, 239.08 475.9, 180.75 418 M180.75 418 C152.44 388.6, 122.53 361.36, 60.25 300 M180.75 418 C137.76 377.68, 97.09 336.74, 60.25 300 M60.25 300 C-1.78 240.09, -0.88 240.47, 60.25 180 M60.25 300 C-0.67 238.38, 0.09 241.84, 60.25 180 M60.25 180 C95.51 146.08, 131.88 108, 180.75 60 M60.25 180 C93.64 145.79, 130.14 109.89, 180.75 60 M180.75 60 C241.45 -1.85, 241.42 1.29, 301.25 60 M180.75 60 C241 1.23, 240.96 1.45, 301.25 60" stroke="#2f9e44" stroke-width="2" fill="none"></path></g><g transform="translate(142 321) rotate(0 104 -119)" stroke="none"><path fill="#1e1e1e" d="M 2.38,-1.36 Q 2.38,-1.36 4.61,-0.04 6.84,1.27 8.18,-1.60 9.53,-4.47 11.48,-6.79 13.44,-9.11 17.80,-17.04 22.15,-24.98 25.70,-31.95 29.26,-38.93 32.65,-47.37 36.04,-55.82 38.95,-63.48 41.86,-71.14 44.75,-80.80 47.64,-90.45 50.00,-100.22 52.37,-109.98 53.90,-119.96 55.44,-129.93 56.39,-140.11 57.33,-150.29 58.31,-159.92 59.30,-169.55 60.00,-178.71 60.71,-187.87 61.59,-195.95 62.48,-204.03 63.43,-211.50 64.38,-218.97 65.39,-224.85 66.39,-230.74 67.46,-234.91 68.52,-239.08 70.08,-242.24 71.64,-245.41 76.85,-246.56 82.07,-247.70 84.36,-246.21 86.65,-244.72 89.05,-240.67 91.44,-236.61 93.76,-232.18 96.07,-227.74 99.07,-221.84 102.07,-215.94 105.40,-208.73 108.74,-201.52 112.45,-193.30 116.16,-185.09 120.40,-174.57 124.63,-164.06 128.69,-154.55 132.75,-145.04 137.03,-135.92 141.32,-126.80 145.44,-118.32 149.57,-109.84 153.91,-101.07 158.25,-92.30 161.79,-85.46 165.33,-78.62 167.93,-74.11 170.52,-69.59 172.31,-67.07 174.11,-64.55 175.30,-63.63 176.50,-62.70 176.93,-61.90 177.36,-61.09 177.59,-60.21 177.81,-59.33 177.82,-58.42 177.83,-57.51 177.62,-56.62 177.41,-55.73 176.99,-54.92 176.57,-54.11 175.97,-53.42 175.38,-52.74 174.63,-52.21 173.88,-51.69 173.03,-51.36 172.18,-51.03 171.28,-50.91 170.38,-50.79 169.47,-50.90 168.57,-51.00 167.71,-51.32 166.86,-51.63 166.10,-52.14 165.35,-52.66 164.74,-53.33 164.13,-54.01 163.73,-57.64 163.34,-61.27 160.67,-67.00 158.01,-72.73 154.46,-79.05 150.91,-85.37 145.45,-93.76 139.99,-102.15 134.19,-108.84 128.39,-115.54 121.91,-119.98 115.43,-124.41 108.06,-127.02 100.70,-129.62 92.64,-130.44 84.58,-131.26 75.37,-128.90 66.16,-126.54 57.81,-121.55 49.46,-116.57 41.85,-109.57 34.24,-102.58 29.46,-94.32 24.67,-86.05 23.12,-83.73 21.57,-81.40 24.42,-80.66 27.28,-79.91 34.86,-83.19 42.44,-86.47 56.29,-93.89 70.14,-101.30 87.32,-111.83 104.49,-122.37 124.31,-134.51 144.12,-146.64 160.86,-156.23 177.59,-165.82 185.94,-171.31 194.28,-176.81 200.39,-180.98 206.51,-185.16 206.89,-185.34 207.27,-185.52 207.70,-185.57 208.12,-185.62 208.53,-185.53 208.95,-185.44 209.32,-185.23 209.68,-185.01 209.96,-184.69 210.24,-184.37 210.40,-183.97 210.56,-183.58 210.58,-183.15 210.61,-182.73 210.50,-182.32 210.39,-181.91 210.15,-181.56 209.91,-181.20 209.58,-180.94 209.24,-180.68 208.84,-180.54 208.44,-180.41 208.01,-180.40 207.59,-180.40 207.18,-180.53 206.78,-180.67 206.44,-180.92 206.10,-181.18 205.86,-181.53 205.62,-181.88 205.50,-182.28 205.39,-182.69 205.41,-183.12 205.43,-183.54 205.58,-183.94 205.74,-184.33 206.01,-184.66 206.28,-184.99 206.64,-185.21 207.01,-185.43 207.42,-185.52 207.83,-185.62 208.26,-185.57 208.68,-185.53 209.07,-185.35 209.45,-185.18 209.76,-184.89 210.08,-184.60 210.28,-184.22 210.48,-183.85 210.55,-183.43 210.62,-183.01 210.56,-182.59 210.49,-182.17 210.29,-181.80 210.10,-181.42 209.79,-181.13 209.48,-180.83 209.48,-180.83 209.48,-180.83 203.40,-176.61 197.32,-172.39 189.17,-166.53 181.01,-160.67 165.69,-148.94 150.37,-137.21 131.29,-123.55 112.21,-109.89 94.70,-98.96 77.18,-88.04 62.17,-80.12 47.15,-72.21 35.53,-69.20 23.90,-66.18 18.08,-69.57 12.27,-72.95 11.97,-83.05 11.66,-93.15 17.93,-103.29 24.21,-113.44 33.14,-121.35 42.08,-129.26 52.36,-134.99 62.64,-140.71 74.27,-143.26 85.90,-145.81 95.78,-144.65 105.65,-143.50 114.75,-140.10 123.86,-136.70 131.78,-131.07 139.71,-125.44 146.16,-117.93 152.61,-110.41 158.39,-101.59 164.16,-92.77 168.11,-85.66 172.06,-78.55 174.28,-73.11 176.50,-67.67 177.28,-63.07 178.07,-58.48 177.29,-60.59 176.50,-62.70 176.93,-61.90 177.36,-61.10 177.59,-60.21 177.81,-59.33 177.82,-58.42 177.83,-57.51 177.62,-56.62 177.41,-55.73 176.99,-54.92 176.57,-54.11 175.98,-53.42 175.38,-52.74 174.63,-52.21 173.88,-51.69 173.03,-51.36 172.19,-51.03 171.28,-50.91 170.38,-50.79 169.47,-50.90 168.57,-51.00 167.71,-51.32 166.86,-51.63 166.10,-52.14 165.35,-52.66 164.74,-53.33 164.13,-54.01 163.05,-54.93 161.98,-55.84 159.78,-59.01 157.58,-62.17 154.84,-66.97 152.10,-71.77 148.50,-78.74 144.89,-85.71 140.55,-94.54 136.20,-103.37 132.06,-111.95 127.91,-120.54 123.57,-129.92 119.22,-139.30 115.14,-148.96 111.07,-158.62 106.99,-168.87 102.91,-179.11 99.24,-187.28 95.57,-195.44 92.35,-202.41 89.13,-209.39 86.19,-215.21 83.24,-221.04 81.04,-225.26 78.83,-229.49 77.33,-233.34 75.82,-237.20 79.18,-236.33 82.54,-235.46 81.62,-231.88 80.71,-228.29 79.76,-222.71 78.81,-217.12 77.87,-209.78 76.93,-202.44 76.06,-194.60 75.19,-186.76 74.48,-177.41 73.77,-168.07 72.79,-158.51 71.80,-148.94 70.81,-138.32 69.81,-127.69 68.15,-117.13 66.49,-106.57 64.02,-96.42 61.56,-86.27 58.50,-76.13 55.43,-65.98 52.46,-58.17 49.49,-50.37 45.81,-41.36 42.13,-32.34 38.50,-25.30 34.88,-18.26 30.77,-10.76 26.65,-3.26 25.15,-1.39 23.64,0.46 20.93,3.11 18.22,5.76 15.43,7.81 12.64,9.86 9.58,10.84 6.52,11.82 3.97,11.10 1.41,10.38 -0.41,8.58 -2.24,6.77 -2.31,4.06 -2.38,1.36 -2.51,1.05 -2.64,0.75 -2.69,0.42 -2.74,0.09 -2.71,-0.23 -2.68,-0.56 -2.58,-0.87 -2.47,-1.18 -2.29,-1.46 -2.11,-1.74 -1.87,-1.97 -1.63,-2.20 -1.35,-2.36 -1.06,-2.53 -0.74,-2.62 -0.42,-2.71 -0.09,-2.72 0.23,-2.73 0.55,-2.66 0.88,-2.60 1.17,-2.45 1.47,-2.31 1.73,-2.10 1.98,-1.89 2.18,-1.62 2.38,-1.36 2.38,-1.36 L 2.38,-1.36 Z"></path></g><g transform="translate(249 331) rotate(0 133.5 33)" stroke="none"><path fill="#2f9e44" d="M 2.62,-0.78 Q 2.62,-0.78 4.58,1.75 6.53,4.30 7.94,8.68 9.34,13.07 10.60,18.54 11.87,24.01 12.75,30.21 13.63,36.41 14.32,42.17 15.01,47.92 15.31,53.10 15.62,58.27 16.01,62.28 16.41,66.29 16.62,68.70 16.83,71.10 16.99,71.80 17.15,72.50 17.12,73.26 17.08,74.01 16.86,74.74 16.65,75.46 16.26,76.12 15.88,76.77 15.35,77.31 14.82,77.85 14.18,78.25 13.53,78.65 12.81,78.88 12.09,79.12 11.34,79.17 10.58,79.23 9.84,79.10 9.09,78.97 8.40,78.67 7.70,78.36 7.10,77.90 6.50,77.44 6.03,76.85 5.55,76.26 5.23,75.58 4.91,74.89 4.77,74.15 4.62,73.40 5.43,70.51 6.24,67.62 6.93,64.88 7.62,62.13 7.95,57.89 8.29,53.65 8.80,47.59 9.32,41.53 10.13,35.07 10.95,28.61 12.50,22.13 14.05,15.65 16.09,11.25 18.14,6.84 21.96,3.82 25.79,0.79 29.38,0.86 32.97,0.92 35.98,3.26 38.99,5.60 40.72,9.63 42.45,13.66 43.53,16.99 44.60,20.32 45.43,24.32 46.25,28.33 47.11,32.09 47.97,35.86 48.38,38.25 48.80,40.65 48.97,41.88 49.15,43.10 49.18,43.88 49.22,44.66 49.07,45.43 48.92,46.20 48.58,46.90 48.25,47.61 47.76,48.22 47.27,48.82 46.65,49.30 46.03,49.77 45.31,50.08 44.59,50.39 43.82,50.52 43.05,50.65 42.28,50.59 41.50,50.53 40.76,50.28 40.01,50.04 39.35,49.63 38.69,49.21 38.15,48.65 37.60,48.09 37.21,47.42 36.82,46.74 36.59,46.00 36.37,45.25 36.94,42.58 37.51,39.91 37.37,33.85 37.24,27.80 37.39,19.81 37.54,11.83 38.17,3.59 38.79,-4.63 40.27,-11.37 41.75,-18.10 44.00,-23.64 46.25,-29.18 49.80,-33.14 53.35,-37.11 57.45,-39.06 61.55,-41.02 66.09,-40.85 70.64,-40.69 74.71,-38.36 78.78,-36.02 82.57,-31.41 86.36,-26.80 89.02,-19.66 91.68,-12.52 93.61,-3.72 95.54,5.07 96.95,15.53 98.37,25.98 99.84,36.62 101.30,47.25 102.81,57.18 104.31,67.12 106.51,74.47 108.71,81.83 111.59,85.52 114.47,89.22 119.10,88.63 123.73,88.04 132.37,82.83 141.01,77.62 159.26,62.65 177.51,47.68 199.48,27.50 221.45,7.32 234.05,-5.04 246.64,-17.42 255.89,-26.63 265.13,-35.84 265.47,-36.09 265.81,-36.34 266.22,-36.47 266.63,-36.60 267.05,-36.59 267.48,-36.58 267.87,-36.43 268.27,-36.29 268.61,-36.02 268.94,-35.76 269.17,-35.40 269.40,-35.05 269.51,-34.63 269.61,-34.22 269.58,-33.80 269.55,-33.38 269.38,-32.98 269.22,-32.59 268.93,-32.28 268.65,-31.96 268.28,-31.75 267.91,-31.53 267.50,-31.45 267.08,-31.37 266.66,-31.42 266.24,-31.48 265.86,-31.67 265.47,-31.85 265.17,-32.15 264.87,-32.45 264.68,-32.83 264.49,-33.21 264.43,-33.63 264.37,-34.05 264.45,-34.47 264.52,-34.89 264.73,-35.26 264.94,-35.63 265.25,-35.91 265.57,-36.20 265.96,-36.37 266.35,-36.54 266.77,-36.58 267.19,-36.61 267.61,-36.51 268.02,-36.41 268.38,-36.19 268.74,-35.96 269.01,-35.63 269.27,-35.30 269.42,-34.90 269.57,-34.50 269.59,-34.08 269.60,-33.65 269.48,-33.25 269.35,-32.84 269.11,-32.49 268.86,-32.15 268.86,-32.15 268.86,-32.15 259.76,-22.80 250.65,-13.45 238.43,-0.72 226.21,12.00 206.01,34.67 185.82,57.33 167.09,74.17 148.37,91.01 136.29,97.06 124.22,103.10 115.30,101.95 106.37,100.79 100.35,93.67 94.33,86.56 91.84,77.95 89.34,69.34 87.91,59.28 86.48,49.23 85.10,38.55 83.72,27.88 82.50,17.95 81.29,8.03 79.72,-0.00 78.15,-8.04 76.64,-13.46 75.14,-18.89 71.84,-23.57 68.55,-28.26 65.34,-28.18 62.13,-28.09 59.93,-26.10 57.74,-24.12 55.92,-19.72 54.10,-15.32 52.78,-9.50 51.47,-3.68 50.92,4.09 50.37,11.87 50.47,19.93 50.57,27.98 50.54,32.77 50.51,37.57 49.83,40.34 49.15,43.10 49.18,43.88 49.22,44.66 49.07,45.43 48.92,46.19 48.58,46.90 48.25,47.61 47.76,48.22 47.27,48.82 46.65,49.30 46.03,49.77 45.31,50.08 44.60,50.39 43.83,50.52 43.06,50.65 42.28,50.59 41.50,50.53 40.76,50.28 40.01,50.04 39.35,49.63 38.69,49.21 38.15,48.65 37.60,48.09 37.21,47.42 36.82,46.74 36.59,46.00 36.37,45.25 35.90,41.97 35.43,38.69 34.54,34.72 33.65,30.75 33.05,27.36 32.46,23.98 31.55,20.76 30.64,17.54 29.62,14.90 28.60,12.25 27.09,15.36 25.58,18.47 24.19,24.26 22.79,30.05 22.08,36.23 21.38,42.40 21.02,48.48 20.66,54.56 20.28,59.93 19.91,65.30 18.53,68.90 17.15,72.50 17.12,73.26 17.08,74.01 16.86,74.74 16.65,75.46 16.26,76.11 15.88,76.77 15.35,77.31 14.82,77.85 14.18,78.25 13.53,78.65 12.81,78.88 12.09,79.12 11.34,79.17 10.58,79.23 9.84,79.10 9.09,78.97 8.40,78.67 7.70,78.36 7.10,77.91 6.50,77.45 6.03,76.85 5.55,76.26 5.23,75.58 4.92,74.89 4.77,74.15 4.62,73.41 4.64,72.69 4.66,71.98 4.54,69.71 4.41,67.44 4.01,63.17 3.61,58.89 3.40,54.04 3.18,49.18 2.65,43.52 2.13,37.85 1.50,32.06 0.88,26.27 -0.04,21.12 -0.97,15.96 -2.03,11.57 -3.08,7.19 -2.85,3.99 -2.62,0.78 -2.68,0.46 -2.74,0.13 -2.71,-0.19 -2.69,-0.52 -2.59,-0.83 -2.49,-1.15 -2.31,-1.43 -2.14,-1.71 -1.90,-1.94 -1.67,-2.17 -1.38,-2.34 -1.09,-2.51 -0.78,-2.61 -0.46,-2.70 -0.13,-2.72 0.19,-2.73 0.51,-2.67 0.84,-2.61 1.14,-2.47 1.44,-2.33 1.70,-2.12 1.96,-1.92 2.16,-1.65 2.36,-1.39 2.49,-1.09 2.62,-0.78 2.62,-0.78 L 2.62,-0.78 Z"></path></g></svg>