<svg width="756" height="378" xmlns="http://www.w3.org/2000/svg" xmlns:xlink="http://www.w3.org/1999/xlink" overflow="hidden"><defs><clipPath id="clip0"><rect x="0" y="0" width="756" height="378"/></clipPath><clipPath id="clip1"><path d="M268.073 17.6665 285.983 80.114 223.522 98.0205 205.611 35.573Z" fill-rule="evenodd" clip-rule="evenodd"/></clipPath><clipPath id="clip2"><path d="M268.073 17.6665 285.983 80.114 223.522 98.0205 205.611 35.573Z" fill-rule="evenodd" clip-rule="evenodd"/></clipPath><clipPath id="clip3"><path d="M268.073 17.6665 285.983 80.114 223.522 98.0205 205.611 35.573Z" fill-rule="evenodd" clip-rule="evenodd"/></clipPath><clipPath id="clip4"><path d="M259.866 295.196 192.277 287.6 199.874 220.026 267.463 227.621Z" fill-rule="evenodd" clip-rule="evenodd"/></clipPath><clipPath id="clip5"><path d="M259.866 295.196 192.277 287.6 199.874 220.026 267.463 227.621Z" fill-rule="evenodd" clip-rule="evenodd"/></clipPath><clipPath id="clip6"><path d="M259.866 295.196 192.277 287.6 199.874 220.026 267.463 227.621Z" fill-rule="evenodd" clip-rule="evenodd"/></clipPath><clipPath id="clip7"><path d="M509.929 18.1204 577.572 25.2283 570.462 92.8559 502.82 85.748Z" fill-rule="evenodd" clip-rule="evenodd"/></clipPath><clipPath id="clip8"><path d="M509.929 18.1204 577.572 25.2283 570.462 92.8559 502.82 85.748Z" fill-rule="evenodd" clip-rule="evenodd"/></clipPath><clipPath id="clip9"><path d="M509.929 18.1204 577.572 25.2283 570.462 92.8559 502.82 85.748Z" fill-rule="evenodd" clip-rule="evenodd"/></clipPath></defs><g clip-path="url(#clip0)"><rect x="0" y="0" width="756" height="377.917" fill="#FFFFFF"/><g clip-path="url(#clip1)"><g clip-path="url(#clip2)"><g clip-path="url(#clip3)"><path d="M55.4911 44.6636 55.4911 38.5731 35.8662 24.7003 35.8662 11.5043C35.8662 8.86504 34.5128 5.41377 32.4826 5.41377 30.5201 5.41377 29.099 8.86504 29.099 11.5043L29.099 24.7003 9.47409 38.5731 9.47409 44.6636 29.099 34.8511 29.099 49.6036 22.3318 55.4911 22.3318 59.5514 32.4826 55.4911 42.6334 59.5514 42.6334 55.4911 35.8662 49.6036 35.8662 34.8511 55.4911 44.6636Z" transform="matrix(0.275694 0.961246 -0.961458 0.275633 268.073 17.6665)"/></g></g></g><text font-family="Times New Roman,Times New Roman_MSFontService,sans-serif" font-weight="400" font-size="32" transform="matrix(1 0 0 0.99978 46.5455 344)">SPACE DYNAMICS &amp; FLIGHT CONTROL LAB</text><path d="M132.812 0C206.162-1.69088e-14 265.625 40.7349 265.625 90.9841 265.625 109.073 257.754 126.751 243.018 141.76" stroke="#00823B" stroke-width="4" stroke-miterlimit="8" fill="none" fill-rule="evenodd" transform="matrix(-0.999611 0.0348995 0.0349072 0.999391 351.399 64.6472)"/><path d="M97.0916 1.60382C161.884-7.78606 224.408 24.5897 236.741 73.917 243.47 100.827 233.903 128.612 210.7 149.549" stroke="#ED7D31" stroke-width="4.00001" stroke-miterlimit="8" fill="none" fill-rule="evenodd" transform="matrix(-0.996413 0.0871556 0.0871748 0.996193 310.744 53.6494)"/><path d="M145.583 212.803C134.437 164.432 234.196 100.163 368.399 69.254 502.603 38.3453 620.431 52.5014 631.576 100.873 642.722 149.244 542.963 213.513 408.76 244.421 274.556 275.33 156.728 261.174 145.583 212.803Z" stroke="#000000" stroke-width="3.00063" stroke-miterlimit="8" fill="none" fill-rule="evenodd"/><g clip-path="url(#clip4)"><g clip-path="url(#clip5)"><g clip-path="url(#clip6)"><path d="M46.821 56.2419 52.8419 50.2211 54.8252 52.2044 48.8044 58.2253 46.821 56.2419ZM44.7669 42.2169 46.7502 44.2002 40.7293 50.2211 38.746 48.2377 44.7669 42.2169ZM52.3461 34.7085 54.3294 36.6918 48.8044 42.2169 46.821 40.2335 52.3461 34.7085ZM50.7877 48.2377 44.7669 54.2586 42.7835 52.2752 48.8044 46.2544 50.7877 48.2377ZM50.7877 44.2002 56.3127 38.6752 58.2961 40.6585 52.7711 46.1835 50.7877 44.2002ZM56.8086 50.2211 54.8252 48.2377 60.3503 42.7127 62.3336 44.696 56.8086 50.2211ZM16.2209 53.7627 19.2668 50.7169 22.3126 53.7627 16.2209 53.7627ZM17.2834 48.7335 14.1667 51.8502 14.1667 45.6169 17.2834 48.7335ZM19.7626 29.1835 17.7792 27.2001 23.8001 21.1793 25.7834 23.1626 19.7626 29.1835ZM15.7251 13.1751 17.7084 15.1584 11.6876 21.1793 9.70421 19.1959 15.7251 13.1751ZM25.2876 7.65003 19.7626 13.1751 17.7792 11.1917 23.2334 5.66669 25.2876 7.65003ZM21.7459 19.1959 15.7251 25.2168 13.7417 23.2334 19.7626 17.2126 21.7459 19.1959ZM21.7459 15.1584 27.271 9.63338 29.2543 11.6167 23.7293 17.1417 21.7459 15.1584ZM27.7668 21.1793 25.7834 19.1959 31.3085 13.6709 33.2918 15.6542 27.7668 21.1793ZM64.3169 42.7127 54.3294 32.7251C53.7627 32.1585 53.0544 31.8751 52.3461 31.8751 51.6377 31.8751 50.8586 32.1585 50.3627 32.7251L44.7669 38.2502 42.7835 36.2668 49.7961 29.2543C50.3627 28.6876 50.6461 27.9793 50.6461 27.271 50.6461 26.4918 50.3627 25.7834 49.7961 25.2876L48.6627 24.0834 51.2836 22.6668 45.3335 16.7167 43.9169 19.3376 42.7835 18.2042C42.2169 17.6376 41.5085 17.3542 40.8002 17.3542 40.021 17.3542 39.3127 17.6376 38.8168 18.2042L31.8043 25.2168 29.7501 23.2334 35.2752 17.7084C35.8418 17.1417 36.1252 16.4334 36.1252 15.7251 36.1252 14.9459 35.8418 14.2376 35.2752 13.7417L25.2876 3.68335C24.7209 3.11668 24.0126 2.83335 23.2334 2.83335 22.4543 2.83335 21.7459 3.11668 21.2501 3.68335L7.72087 17.2126C7.22503 17.7084 6.9417 18.4167 6.9417 19.1959 6.9417 19.9751 7.22503 20.6834 7.7917 21.1793L17.7792 31.1668C18.3459 31.7335 19.0542 32.0168 19.7626 32.0168 20.4709 32.0168 21.2501 31.7335 21.7459 31.1668L27.7668 25.1459 29.7501 27.1293 22.7376 34.1418C22.1709 34.7085 21.8876 35.4168 21.8876 36.1252 21.8876 36.9043 22.1709 37.6127 22.7376 38.1085L24.7918 40.0918 22.6668 42.2169C17.9209 38.4627 12.1834 37.6127 9.20837 40.6585L11.3334 42.7127 11.2625 53.3377C9.84588 53.5502 8.78337 54.8252 8.85421 56.3127 8.92504 57.8003 10.1292 58.9336 11.6167 58.9336 13.1042 59.0044 14.3084 57.8711 14.5209 56.4544L25.1459 56.5252 27.271 58.6503C30.246 55.6752 29.4668 49.9377 25.7126 45.1919L27.8376 43.0669 29.7501 45.1919C30.3168 45.7585 31.0251 46.0419 31.7335 46.0419 32.5126 46.0419 33.221 45.7585 33.7168 45.1919L40.7293 38.1793 42.7127 40.1627 36.6918 46.1835C36.1252 46.7502 35.8418 47.4585 35.8418 48.1669 35.8418 48.8752 36.1252 49.6544 36.6918 50.1502L46.7502 60.1378C47.3169 60.7044 48.0252 60.9878 48.7335 60.9878 49.5127 60.9878 50.2211 60.7044 50.7169 60.1378L64.3169 46.7502C64.8836 46.1835 65.1669 45.4752 65.1669 44.7669 65.1669 43.9877 64.8836 43.2794 64.3169 42.7127Z" stroke="#000000" stroke-width="0.708336" fill="#FFD966" transform="matrix(-0.993959 -0.111694 0.111719 -0.99374 259.866 295.196)"/></g></g></g><g clip-path="url(#clip7)"><g clip-path="url(#clip8)"><g clip-path="url(#clip9)"><path d="M46.821 56.2419 52.8419 50.221 54.8252 52.2044 48.8044 58.2252 46.821 56.2419ZM44.7668 42.2168 46.7502 44.2002 40.7293 50.221 38.746 48.2377 44.7668 42.2168ZM52.346 34.7085 54.3294 36.6918 48.8044 42.2168 46.821 40.2335 52.346 34.7085ZM50.7877 48.2377 44.7668 54.2585 42.7835 52.2752 48.8044 46.2544 50.7877 48.2377ZM50.7877 44.2002 56.3127 38.6752 58.2961 40.6585 52.771 46.1835 50.7877 44.2002ZM56.8086 50.221 54.8252 48.2377 60.3502 42.7127 62.3336 44.696 56.8086 50.221ZM16.2209 53.7627 19.2667 50.7169 22.3126 53.7627 16.2209 53.7627ZM17.2834 48.7335 14.1667 51.8502 14.1667 45.6169 17.2834 48.7335ZM19.7626 29.1835 17.7792 27.2001 23.8001 21.1793 25.7834 23.1626 19.7626 29.1835ZM15.7251 13.1751 17.7084 15.1584 11.6875 21.1793 9.70421 19.1959 15.7251 13.1751ZM25.2876 7.65003 19.7626 13.1751 17.7792 11.1917 23.2334 5.66669 25.2876 7.65003ZM21.7459 19.1959 15.7251 25.2168 13.7417 23.2334 19.7626 17.2126 21.7459 19.1959ZM21.7459 15.1584 27.2709 9.63337 29.2543 11.6167 23.7293 17.1417 21.7459 15.1584ZM27.7668 21.1793 25.7834 19.1959 31.3085 13.6709 33.2918 15.6542 27.7668 21.1793ZM64.3169 42.7127 54.3294 32.7251C53.7627 32.1585 53.0544 31.8751 52.346 31.8751 51.6377 31.8751 50.8585 32.1585 50.3627 32.7251L44.7668 38.2502 42.7835 36.2668 49.796 29.2543C50.3627 28.6876 50.646 27.9793 50.646 27.2709 50.646 26.4918 50.3627 25.7834 49.796 25.2876L48.6627 24.0834 51.2835 22.6668 45.3335 16.7167 43.9168 19.3376 42.7835 18.2042C42.2168 17.6376 41.5085 17.3542 40.8002 17.3542 40.021 17.3542 39.3127 17.6376 38.8168 18.2042L31.8043 25.2168 29.7501 23.2334 35.2751 17.7084C35.8418 17.1417 36.1251 16.4334 36.1251 15.7251 36.1251 14.9459 35.8418 14.2376 35.2751 13.7417L25.2876 3.68335C24.7209 3.11668 24.0126 2.83334 23.2334 2.83334 22.4543 2.83334 21.7459 3.11668 21.2501 3.68335L7.72086 17.2126C7.22503 17.7084 6.94169 18.4167 6.94169 19.1959 6.94169 19.9751 7.22503 20.6834 7.7917 21.1793L17.7792 31.1668C18.3459 31.7335 19.0542 32.0168 19.7626 32.0168 20.4709 32.0168 21.2501 31.7335 21.7459 31.1668L27.7668 25.1459 29.7501 27.1293 22.7376 34.1418C22.1709 34.7085 21.8876 35.4168 21.8876 36.1251 21.8876 36.9043 22.1709 37.6126 22.7376 38.1085L24.7918 40.0918 22.6668 42.2168C17.9209 38.4627 12.1834 37.6126 9.20837 40.6585L11.3334 42.7127 11.2625 53.3377C9.84587 53.5502 8.78337 54.8252 8.8542 56.3127 8.92504 57.8002 10.1292 58.9336 11.6167 58.9336 13.1042 59.0044 14.3084 57.8711 14.5209 56.4544L25.1459 56.5252 27.2709 58.6502C30.246 55.6752 29.4668 49.9377 25.7126 45.1918L27.8376 43.0668 29.7501 45.1918C30.3168 45.7585 31.0251 46.0419 31.7335 46.0419 32.5126 46.0419 33.221 45.7585 33.7168 45.1918L40.7293 38.1793 42.7127 40.1627 36.6918 46.1835C36.1251 46.7502 35.8418 47.4585 35.8418 48.1669 35.8418 48.8752 36.1251 49.6544 36.6918 50.1502L46.7502 60.1377C47.3169 60.7044 48.0252 60.9877 48.7335 60.9877 49.5127 60.9877 50.221 60.7044 50.7169 60.1377L64.3169 46.7502C64.8836 46.1835 65.1669 45.4752 65.1669 44.7668 65.1669 43.9877 64.8836 43.2793 64.3169 42.7127Z" stroke="#000000" stroke-width="0.708336" fill="#FFD966" transform="matrix(0.994739 0.104528 -0.104551 0.99452 509.929 18.1204)"/></g></g></g><text fill="#2F5597" font-family="Times New Roman,Times New Roman_MSFontService,sans-serif" font-weight="400" font-size="184" transform="matrix(1 0 0 0.99978 98.5419 233)">SDFCL</text></g></svg>